<?xml version="1.0" encoding="utf-8"?>
<!-- Generator: Adobe Illustrator 22.1.0, SVG Export Plug-In . SVG Version: 6.00 Build 0)  -->
<svg version="1.1" id="Layer_1" xmlns="http://www.w3.org/2000/svg" xmlns:xlink="http://www.w3.org/1999/xlink" x="0px" y="0px"
	 viewBox="0 0 128 128" style="enable-background:new 0 0 128 128;" xml:space="preserve">
<style type="text/css">
	.st0{fill:none;stroke:#000000;stroke-miterlimit:10;}
</style>
<path class="st0" d="M96.3,37.1l-0.2-0.2c1.1-6.7,6.9-11.7,13.8-11.7c-7.8,0-14-6.3-14-14c0,7.8-6.3,14-14,14
	c6.7,0,12.3,4.7,13.7,11l-3.4-4.9l-28.2-2.8L34.2,57H16.4h77.4h17.8H93.8L63.9,28.4l-28,2.8c0,0-1.6,25.2-1.7,25.7
	c0,0.5,29.7,57.9,29.7,57.9L93.8,57l-1.7-25.7l-28.2-2.8l-28,2.8L16.4,57l47.5,57.9L111.6,57L97,38.1L96.3,37.1z"/>
</svg>
