<?xml version="1.0" encoding="utf-8"?>
<!-- Generator: Adobe Illustrator 16.0.0, SVG Export Plug-In . SVG Version: 6.00 Build 0)  -->
<!DOCTYPE svg PUBLIC "-//W3C//DTD SVG 1.1//EN" "http://www.w3.org/Graphics/SVG/1.1/DTD/svg11.dtd">
<svg version="1.1" id="Layer_1" xmlns="http://www.w3.org/2000/svg" xmlns:xlink="http://www.w3.org/1999/xlink" x="0px" y="0px"
	 width="500px" height="500px" viewBox="0 0 500 500" enable-background="new 0 0 500 500" xml:space="preserve">
<g>
	<g>
		<path d="M433.98,412.278L433.98,412.278c-3.457-3.447-6.393-5.483-8.976-6.225c-2.62-0.752-4.959-0.191-6.767,1.62l-1.7,1.696
			c-17.81,17.809-38.543,31.79-61.633,41.557c-23.895,10.105-49.281,15.23-75.461,15.23c-26.179,0-51.567-5.125-75.459-15.23
			c-23.087-9.765-43.821-23.745-61.629-41.557c-18.553-18.552-32.534-39.284-41.553-61.624
			c-8.794-21.783-11.667-38.167-12.611-43.551c-0.088-0.504-0.157-0.902-0.212-1.19c-1.21-6.341-7.045-6.782-15.431-5.5
			c-3.487,0.532-14.1,2.156-13.089,9.793l0.025,0.175c2.81,17.674,7.772,35.004,14.752,51.506
			c11.219,26.525,27.276,50.342,47.724,70.788c20.449,20.449,44.266,36.506,70.79,47.725C220.21,489.108,249.38,495,279.445,495
			c30.051,0,59.221-5.894,86.696-17.518c26.515-11.215,50.331-27.272,70.79-47.732c0.047-0.048,1.164-1.156,1.775-1.822
			C440.959,425.478,442.918,421.188,433.98,412.278L433.98,412.278z M279.169,57.5c-28.729,0-59.292,5.799-81.746,15.512
			c-2.399,0.94-3.834,2.868-4.149,5.576c-0.295,2.555,0.395,5.926,2.111,10.313c1.393,3.559,5.091,13.01,12.252,10.279
			c22.98-8.766,48.383-13.594,71.531-13.594c26.229,0,51.666,5.134,75.609,15.26c19.021,8.047,36.972,19.672,56.485,36.582
			c1.424,1.234,2.935,1.859,4.489,1.859c3.806,0,7.453-3.737,10.574-7.24c5.21-5.846,8.791-10.705,3.655-15.567
			c-18.637-17.654-39.057-30.842-64.268-41.502C338.302,63.38,309.183,57.5,279.169,57.5L279.169,57.5z M240.002,300.417
			c0.034,3.246,3.005,6.095,4.78,7.795l0.558,0.538c3.044,2.994,5.942,4.514,8.617,4.514c2.215,0,3.579-1.049,4.063-1.498
			c1.341-1.246,16.509-16.613,17.956-18.08l16.914,16.86c1.565,1.765,3.269,2.647,5.252,2.703c2.7,0,5.645-1.606,8.749-4.774
			c7.298-7.451,3.646-11.472,1.879-13.414l-17.138-17.144l17.873-18.001c3.919-4.24,0.459-8.748-2.995-12.201
			c-5.013-5.013-9.849-6.307-12.948-3.45l-17.771,17.803l-17.971-17.979c-0.954-0.913-2.155-1.395-3.477-1.395
			c-2.395,0-5.227,1.619-8.422,4.813c-5.527,5.526-6.712,9.348-3.835,12.396l17.977,17.922l-17.872,17.9
			C240.722,297.197,239.984,298.773,240.002,300.417L240.002,300.417z M126.037,326.96c0.107,0.297,2.646,7.315,4.117,10.796
			c8.075,19.092,19.638,36.24,34.368,50.973c14.721,14.718,31.871,26.279,50.979,34.359c19.779,8.368,40.786,12.611,62.436,12.611
			c21.646,0,42.651-4.243,62.437-12.612c19.1-8.079,36.251-19.642,50.979-34.368c14.725-14.723,26.287-31.873,34.366-50.978
			c8.367-19.78,12.609-40.788,12.609-62.437c0-21.647-4.242-42.655-12.609-62.436c-8.077-19.1-19.641-36.252-34.366-50.979
			c-14.724-14.723-31.874-26.286-50.979-34.368c-19.782-8.367-40.787-12.61-62.437-12.61c-21.905,0-43.792,4.36-63.297,12.61
			c-15.591,6.596-41.98,23.575-57.426,39.506l-0.092,0.093v-132l221.734-0.002c8.069-0.088,8.069-11.356,8.069-15.059
			c0-3.702,0-14.967-8.094-15.059L139.077,5c-6.526,0-10.567,5.429-10.567,10.459v185.797c0,5.994,7.466,10.322,14.404,11.806
			c13.548,2.894,16.679-1.437,19.997-6.019l0.44-0.608c5.066-7.526,20.896-23.458,21.055-23.616
			c24.704-24.704,57.735-38.308,93.008-38.308c35.105,0,68.043,13.604,92.746,38.308c24.786,24.789,38.438,57.634,38.438,92.486
			c0,34.979-13.58,67.822-38.242,92.483c-24.347,24.347-58.357,38.309-93.313,38.309c-23.678,0-46.529-6.307-66.106-18.246
			l0.083-112.973c0-15.063,6.538-31.438,17.487-43.804c12.518-14.137,29.771-21.922,48.579-21.922
			c18.215,0,35.228,6.915,47.904,19.472c12.585,12.467,19.516,29.078,19.516,46.771c0,37.752-29.687,67.324-67.584,67.324
			c-7.306,0-20.586-3.227-21.133-3.359c-7.65-2.279-10.907,8.346-11.978,11.846c-4.119,13.467,2.071,16.137,3.354,16.535
			c12.196,3.785,20.191,4.502,30.682,4.502c53.499,0,97.021-43.547,97.021-97.07c0-53.094-43.498-96.29-96.963-96.29
			c-26.184,0-50.78,10.009-69.259,28.182c-17.598,17.308-27.691,40.385-27.691,63.308l-0.01,0.569
			c-0.085,2.859-0.142,70.584-0.158,92.811l-0.1-0.109c-10.056-11.136-19.995-28.182-26.584-45.595
			c-2.583-6.823-8.418-5.616-16.38-3.164c-3.477,1.07-14.06,4.331-11.719,11.98L126.037,326.96L126.037,326.96z"/>
	</g>
</g>
</svg>
