<?xml version="1.0" encoding="utf-8"?>
<!-- Generator: Adobe Illustrator 16.0.0, SVG Export Plug-In . SVG Version: 6.00 Build 0)  -->
<!DOCTYPE svg PUBLIC "-//W3C//DTD SVG 1.1//EN" "http://www.w3.org/Graphics/SVG/1.1/DTD/svg11.dtd">
<svg version="1.1" id="Layer_1" xmlns="http://www.w3.org/2000/svg" xmlns:xlink="http://www.w3.org/1999/xlink" x="0px" y="0px"
	 width="500px" height="500px" viewBox="0 0 500 500" enable-background="new 0 0 500 500" xml:space="preserve">
<g>
	<g>
		<path fill-rule="evenodd" clip-rule="evenodd" fill="#6DC4A6" d="M5,96.875c8.28,0.164,16.558,0.459,24.839,0.47
			c38.6,0.051,77.207-0.419,115.795,0.253c14.231,0.248,28.772,1.683,42.561,5.07c37.564,9.229,58.018,38.081,56.697,76.74
			c-0.833,24.398-9.604,43.907-31.673,56.137c-1.092,0.605-2.019,1.524-2.967,2.36c-0.172,0.151-0.076,0.606-0.114,1.023
			c6.357,3.936,13.225,7.31,19.065,11.97c17.701,14.124,24.179,33.512,25.454,55.488c2.083,35.91-18.894,71.689-50.952,86.012
			c-12.727,5.686-26.269,7.854-39.935,8.787c-14.939,1.02-29.948,1.305-44.931,1.388c-34.451,0.188-68.904,0.045-103.356,0.081
			c-3.494,0.004-6.989,0.306-10.483,0.471C5,301.041,5,198.959,5,96.875z M75.878,350.136c27.18-0.693,53.601-0.48,79.881-2.301
			c22.674-1.57,35.312-18.107,34.829-42.226c-0.426-21.188-13.726-35.186-36.454-36.188c-24.819-1.095-49.703-0.744-74.56-0.961
			c-1.148-0.01-2.303,0.595-3.696,0.979C75.878,295.909,75.878,321.984,75.878,350.136z M75.968,217.384
			c24.725,0,48.295,0.059,71.865-0.07c3.139-0.018,6.304-0.854,9.403-1.546c20.992-4.674,29.935-18.002,26.364-39.189
			c-2.193-13.022-8.361-19.632-21.255-22.481c-28.06-6.201-56.507-2.897-84.801-3.302c-0.498-0.008-1.007,0.692-1.577,1.112
			C75.968,173.434,75.968,195.001,75.968,217.384z"/>
		<path fill-rule="evenodd" clip-rule="evenodd" fill="#6DC4A6" d="M495,299.766c-52.565,0-105.131,0-157.642,0
			c-1.978,26.199,13.059,43.594,29.357,50.057c26.233,10.401,48.863,3.716,67.337-20.328c18.698,0,37.644,0,57.061,0
			c-0.516,11.651-5.896,20.665-12.107,29.087c-18.286,24.795-43.201,37.929-73.701,40.824c-23.211,2.203-45.653-0.238-67.216-9.875
			c-31.051-13.878-50.679-36.71-56.638-70.538c-4.767-27.056-4.869-54.151,3.77-80.383c13.402-40.696,42.68-63.074,84.658-68.707
			c18.761-2.518,37.604-1.277,55.82,4.531c35.784,11.411,55.908,37.043,65.309,72.379C494.25,259,495,294.197,495,299.766z
			 M434.718,261.45c-0.321-27.109-20.406-45.74-48.416-45.681c-24.559,0.052-45.646,15.062-47.603,45.681
			C370.725,261.45,402.719,261.45,434.718,261.45z"/>
		<path fill-rule="evenodd" clip-rule="evenodd" fill="#6DC4A6" d="M325.087,140.02c0-9.756,0-19.178,0-29.19
			c40.556,0,80.822,0,121.688,0c0,9.554,0,18.976,0,29.19C406.696,140.02,366.441,140.02,325.087,140.02z"/>
	</g>
</g>
</svg>
