<?xml version="1.0" encoding="utf-8"?>
<!-- Generator: Adobe Illustrator 21.0.0, SVG Export Plug-In . SVG Version: 6.00 Build 0)  -->
<svg version="1.1" id="Layer_1" xmlns="http://www.w3.org/2000/svg" xmlns:xlink="http://www.w3.org/1999/xlink" x="0px" y="0px"
	 viewBox="0 0 500 500" style="enable-background:new 0 0 500 500;" xml:space="preserve">
<style type="text/css">
	.st0{fill:#E94A89;}
	.st1{fill:#B41C59;}
</style>
<circle class="st0" cx="250" cy="250" r="245"/>
<path class="st1" d="M250,5C114.7,5,5,114.7,5,250c0,135.3,109.7,245,245,245s245-109.7,245-245C495,114.7,385.3,5,250,5z M48,301.2
	c-2.5-9.7-4.2-19.5-5.3-29.4c-0.5-4.5-0.8-8.9-1-13.4c-0.2-3.6-0.3-7.2-0.2-10.7c0-0.8,0.1-1.7,0.2-2.5c0.2-1.7,0.3-1.7,2-1.7
	c3.1,0,6.1,0,9.2,0h1.4c7.1,0.2,14.2-0.3,21.3-0.5c6.9-0.2,13.8-0.7,20.7-1.2c7.8-0.6,15.6-1.2,23.3-2c13.3-1.3,26.6-3,39.9-4.9
	c26.2-3.8,52.1-9,77.7-15.7c5.7-1.5,11.3-3.1,16.9-4.7c2.2-0.6,2.3-0.6,3.4,1.4c4.1,8.1,8.2,16.1,11.9,24.4c1,2.3,2.1,4.6,3.2,7
	c0.8,1.7,0.6,1.9-1.1,2.5c-14.3,4.3-28.1,9.7-41.5,16.2c-11.5,5.6-22.6,11.9-33.2,19c-10.5,7-20.7,14.5-30.3,22.7
	c-5.7,4.8-11.1,9.8-16.5,14.9c-8.9,8.4-17.2,17.4-25.2,26.7c-9.2,10.8-17.7,22-25.5,33.9c-1,1.6-2,3.2-3,4.8
	c-0.7,1.1-0.9,1.2-1.9,0.1c-4.1-4.5-7.9-9.2-11.5-14c-8.2-11.1-15.3-22.8-21.2-35.3C55.8,326.6,51.3,314.1,48,301.2z M102.1,103.2
	c6.1-6.1,12.6-11.9,19.4-17.2c11.6-9,24-16.9,37.2-23.3c0.4-0.2,0.7-0.3,1.1-0.5c1.9-0.9,1.9-0.9,3.2,0.9
	c7.1,9.8,13.9,19.7,20.7,29.6c15.7,23.1,30.6,46.6,44.8,70.6c3.2,5.4,6.3,10.8,9.4,16.2c0,0.1,0.1,0.1,0.1,0.2c1.1,2,1.1,2-1,2.6
	c-17,4.4-34,8.2-51.3,11.4c-13.1,2.4-26.3,4.6-39.5,6.3c-7.4,1-14.8,2-22.3,2.7c-6.1,0.6-12.2,1.3-18.3,1.8
	c-4.3,0.4-8.6,0.6-12.9,0.9c-5.5,0.4-10.9,0.7-16.4,1.1c-0.3,0-0.5,0-0.8,0c-6.2,0-12.4,0.7-17.2,0.5c-4.4,0-7.5,0-10.6,0
	c-1.6,0-1.7-0.1-1.3-1.7c0.9-4.6,2.1-9.1,3.5-13.6c3.7-12.8,8.7-25.1,14.8-37c6.5-12.5,14.2-24.3,23-35.3
	C92.2,113.7,97,108.3,102.1,103.2z M249.9,41.3c6.4,0.3,12.9,0.3,19.3,0.9c10.6,1,21.1,2.7,31.4,5.2c9.7,2.4,19.2,5.5,28.4,9.3
	c12.3,5,24,11.1,35.1,18.4c8.2,5.3,16,11.2,23.4,17.6c1.2,1,1.2,1.1,0.3,2.4c-1.9,2.6-4,5.1-6.2,7.6c-8.7,9.8-18.4,18.4-28.8,26.4
	c-12.6,9.6-26,18-40.2,25.2c-10.3,5.3-20.8,10-31.6,14.1c-2.1,0.8-1.9,0.5-2.7-1c-3.2-5.7-6.4-11.4-9.6-17
	c-5.7-10-11.7-19.9-17.7-29.7c-7.2-11.6-14.5-23-22.1-34.3c-8.4-12.6-17-25-26-37.1c-1.5-2.1-1.5-2.2,1.1-2.7
	c7.6-1.6,15.2-3,22.9-3.8c6.7-0.7,13.3-1.3,20.1-1.2C248,41.5,249,41.4,249.9,41.3z M456.3,216c1.1,6.9,2,13.8,2.4,20.7
	c0.1,2,0.3,3.9,0.3,5.9c0,1.2,0,2.5,0,3.7c0,1.2-0.2,1.3-1.4,1.1c-3.5-0.6-7.1-1.3-10.6-1.9c-7.8-1.3-15.6-2.4-23.4-3.4
	c-6.9-0.9-13.7-1.6-20.6-2.2c-4.8-0.4-9.6-0.6-14.4-1c-12.6-0.8-25.1-0.9-37.7-0.7c-6.6,0.1-13.2,0.5-19.9,1
	c-5.2,0.4-10.5,0.9-15.7,1.6c-1.3,0.2-1.5,0-2.2-1.4c-1.3-2.9-2.5-5.9-3.8-8.8c-2.8-6.3-5.7-12.6-8.5-18.9c-1.5-3.3-3.1-6.6-4.7-9.9
	c-0.8-1.7-0.8-1.7,0.9-2.4c8.2-3.4,16.3-7,24.2-11.1c18.2-9.3,35.6-20,51.7-32.6c5.8-4.5,11.3-9.2,16.7-14.1
	c7.4-6.9,14.5-14.1,20.8-22c1.4-1.8,1.5-1.8,3,0.1c10.7,13.3,19.6,27.8,26.8,43.3C447.9,180,453.4,197.6,456.3,216z M234.8,457.6
	c-14.6-1.1-28.9-3.6-43-7.8c-10.8-3.2-21.2-7.2-31.4-12c-13-6.2-25.2-13.7-36.6-22.4c-1.7-1.3-1.7-1.3-0.7-3.2
	c6.4-11.8,14.1-22.7,22.5-33.1c7.8-9.6,16.2-18.5,25.2-26.9c9.7-9.2,20.1-17.6,31-25.3c15.3-10.9,31.5-20.3,48.5-28.4
	c10.3-4.9,20.8-9.3,31.6-13.1c1.2-0.4,2.4-0.9,3.7-1.3c1.6-0.5,1.7-0.4,2.3,1.1c2,5.5,4.1,11,6.1,16.5c3.8,10.6,7.5,21.3,10.8,32
	c4.3,13.5,8.3,27.2,11.9,40.9c4.9,18.4,9.3,36.9,12.9,55.6c0.6,3,1.1,6,1.7,9c0.4,2.3,0.3,2.5-1.8,3.4c-14.4,6-29.2,10.2-44.6,12.7
	c-6.9,1.1-13.9,1.9-20.9,2.4c-4.4,0.3-8.7,0.2-13.1,0.3C245.5,458.2,240.1,458,234.8,457.6z M396.5,398.3
	c-8.6,8.4-17.8,16-27.7,22.8c-0.2,0.2-0.4,0.3-0.7,0.4c-1.1,0.6-1.3,0.6-1.6-0.7c-0.5-2.3-0.9-4.6-1.3-6.9
	c-1.9-10.4-4.1-20.7-6.5-31c-3.9-16.9-8.3-33.6-13.2-50.3c-4.8-16.4-10-32.8-15.7-48.9c-1-2.7-1.9-5.4-2.9-8.1
	c-0.6-1.6-0.5-1.8,1.2-2c3.1-0.5,6.2-1,9.3-1.3c4.6-0.5,9.2-0.9,13.8-1.2c5.6-0.3,11.3-0.6,17-0.5c0.6,0,1.2,0,1.8,0v0.1
	c3.3,0,6.6-0.1,10,0c5.4,0.3,10.8,0.5,16.2,1c5,0.5,10,1,14.9,1.6c7.6,1,15.2,2.3,22.7,3.8c6.7,1.4,13.4,3,19.9,4.9
	c2.6,0.8,2.6,0.8,2.2,3.5c-2.1,12.5-5.4,24.7-9.8,36.5c-2.9,7.8-6.2,15.5-10.1,22.9c-6.8,13.1-14.8,25.3-24.2,36.6
	C407,387.4,401.9,393,396.5,398.3z"/>
</svg>
