<?xml version="1.0" encoding="utf-8"?>
<!-- Generator: Adobe Illustrator 16.0.0, SVG Export Plug-In . SVG Version: 6.00 Build 0)  -->
<!DOCTYPE svg PUBLIC "-//W3C//DTD SVG 1.1//EN" "http://www.w3.org/Graphics/SVG/1.1/DTD/svg11.dtd">
<svg version="1.1" id="Layer_1" xmlns="http://www.w3.org/2000/svg" xmlns:xlink="http://www.w3.org/1999/xlink" x="0px" y="0px"
	 width="500px" height="500px" viewBox="390 150 500 500" enable-background="new 390 150 500 500" xml:space="preserve">
<path fill="#6DC4A6" d="M493,547V341.689h62.72V547H493 M557.68,284.85c0.491,17.64-12.74,31.85-33.81,31.85
	c-19.6,0-32.34-14.21-32.34-31.85c0-18.13,13.23-31.85,33.32-31.85S557.68,266.72,557.68,284.85 M722.32,547V433.32
	c0-26.46-8.82-44.591-31.851-44.591c-17.149,0-27.439,12.25-32.341,24.01c-1.469,4.41-1.959,10.291-1.959,16.171V547h-62.72V407.351
	c0-25.48-0.979-47.041-1.47-65.661h54.392l2.938,28.911h0.979c8.332-13.72,28.911-33.32,62.722-33.32
	c41.159,0,72.52,27.93,72.52,88.69V547H722.32 M885,198.12c0-23.52-19.601-43.12-43.121-43.12H438.12
	C414.6,155,395,174.6,395,198.12v403.759C395,625.399,414.6,645,438.12,645h403.759C865.399,645,885,625.399,885,601.879V198.12"/>
</svg>
