<?xml version="1.0" encoding="utf-8"?>
<!-- Generator: Adobe Illustrator 16.0.0, SVG Export Plug-In . SVG Version: 6.00 Build 0)  -->
<!DOCTYPE svg PUBLIC "-//W3C//DTD SVG 1.1//EN" "http://www.w3.org/Graphics/SVG/1.1/DTD/svg11.dtd">
<svg version="1.1" id="Layer_1" xmlns="http://www.w3.org/2000/svg" xmlns:xlink="http://www.w3.org/1999/xlink" x="0px" y="0px"
	 width="500px" height="500px" viewBox="0 0 500 500" enable-background="new 0 0 500 500" xml:space="preserve">
<g>
	<path fill-rule="evenodd" clip-rule="evenodd" fill="#6DC4A6" d="M436.309,322.895c-73.21-0.003-228.526,0.544-228.526,0.544
		s-130.163-0.478-148.065-0.461c-3.249,0.003-6.816-0.509-6.644,4.62c0.311,9.205-0.873,18.484,0.786,27.61
		c6.601,36.308,34.36,56.261,74.192,53.501c0,0,104.944,0.355,146.875,0.289c4.659-0.006,8.344-0.178,8.244,6.509
		c-0.396,26.495-0.335,52.995-0.443,79.493c1.085,0,2.171,0,3.256,0c-1.222-3.533,2.028-4.681,3.698-6.427
		c21.366-22.329,43.302-44.136,64.06-67.012c8.569-9.444,17.33-13.181,30.107-12.856c28.563,0.719,52.14-17.984,60.271-45.43
		c2.902-9.794,2.959-19.76,2.87-29.799C446.897,322.914,446.957,322.895,436.309,322.895z"/>
	<path fill-rule="evenodd" clip-rule="evenodd" fill="#6DC4A6" d="M62.421,92.763c125.012-0.299,250.022-0.208,375.033-0.21
		c1.898,0,3.801-0.083,5.695,0.006c2.808,0.13,3.701-1.226,3.819-3.913c1.235-27.891-0.744-61.069-42.229-78.778
		C404.397,9.723,392.69,5,371.729,5c-61.358,0-193.198,0.147-243.126,0.147c-21.696,0-30.458,3.534-36.42,5.98
		c-20.494,8.409-32.615,24.307-37.692,45.807c-2.029,8.598-0.737,17.304-1.565,25.895C52.191,90.438,54.264,92.782,62.421,92.763z"
		/>
	<path fill-rule="evenodd" clip-rule="evenodd" fill="#6DC4A6" d="M447.009,225.787c0.021-4.185-0.744-6.497-5.705-6.468
		c-44.157,0-132.475,0.287-132.475,0.287c-0.533-0.101-167.081,0.171-249.822,0c-5.516-0.011-6.027,2.223-6,6.63
		c0.138,22.245,0.335,44.496-0.104,66.732c-0.133,6.723,2.179,8.026,8.341,8.001c55.069-0.21,172.48-0.681,172.48-0.681
		s138.403,0.592,202.354,0.592c1.624,0,3.266-0.146,4.874,0.025c4.568,0.486,6.116-1.409,6.08-6.022
		C446.85,271.852,446.883,248.818,447.009,225.787z"/>
	<path fill-rule="evenodd" clip-rule="evenodd" fill="#6DC4A6" d="M441.337,115.327c-10.547,0.305-21.104,0.316-31.656,0.447
		c-0.534-0.097-234.336-0.288-350.703-0.463c-5.539-0.008-6.019,2.344-5.986,6.795c0.163,21.699,0.361,43.406-0.087,65.098
		c-0.148,7.187,1.429,9.57,9.2,9.542c88.156-0.305,272.548-0.744,272.548-0.744s72.006,0.221,108.006,0.616
		c3.779,0.041,4.358-1.979,4.349-5.147c-0.073-23.565-0.134-47.133,0.043-70.699C447.083,116.37,445.404,115.208,441.337,115.327z"
		/>
</g>
</svg>
