<?xml version="1.0" encoding="utf-8"?>
<!-- Generator: Adobe Illustrator 16.0.0, SVG Export Plug-In . SVG Version: 6.00 Build 0)  -->
<!DOCTYPE svg PUBLIC "-//W3C//DTD SVG 1.1//EN" "http://www.w3.org/Graphics/SVG/1.1/DTD/svg11.dtd">
<svg version="1.1" id="Layer_1" xmlns="http://www.w3.org/2000/svg" xmlns:xlink="http://www.w3.org/1999/xlink" x="0px" y="0px"
	 width="500px" height="500px" viewBox="0 0 500 500" enable-background="new 0 0 500 500" xml:space="preserve">
<g>
	<path fill-rule="evenodd" clip-rule="evenodd" fill="#8ED6F2" d="M404.74,9.869c41.484,17.709,43.464,50.888,42.229,78.778
		c-0.118,2.687-1.012,4.043-3.819,3.913c-1.895-0.089-3.797-0.006-5.695-0.006c-125.011,0.001-250.021-0.089-375.033,0.21
		c-8.157,0.019-10.229-2.325-9.495-9.934c0.828-8.59-0.464-17.296,1.565-25.895c5.077-21.5,17.198-37.398,37.692-45.807
		c5.962-2.446,14.724-5.98,36.42-5.98C178.531,5.147,310.371,5,371.729,5C392.69,5,404.397,9.723,404.74,9.869z"/>
	<path fill-rule="evenodd" clip-rule="evenodd" fill="#1F5193" d="M207.782,323.438c0,0,155.316-0.547,228.526-0.544
		c10.648,0,10.589,0.02,10.681,10.582c0.089,10.039,0.032,20.005-2.87,29.799c-8.131,27.445-31.707,46.148-60.271,45.43
		c-12.777-0.324-21.538,3.412-30.107,12.856c-20.758,22.876-42.693,44.683-64.06,67.012c-1.67,1.746-4.92,2.894-3.698,6.427
		c-1.085,0-2.171,0-3.256,0c0.108-26.498,0.048-52.998,0.443-79.493c0.1-6.687-3.585-6.515-8.244-6.509
		c-41.931,0.066-146.875-0.289-146.875-0.289L207.782,323.438z"/>
	<path fill-rule="evenodd" clip-rule="evenodd" fill="#68ABDD" d="M334.652,196.002c0,0-184.392,0.439-272.548,0.744
		c-7.771,0.027-9.349-2.356-9.2-9.542c0.448-21.691,0.25-43.398,0.087-65.098c-0.032-4.452,0.447-6.803,5.986-6.795
		c116.367,0.175,350.169,0.366,350.703,0.463C386.87,139.955,334.652,196.002,334.652,196.002z"/>
	<path fill-rule="evenodd" clip-rule="evenodd" fill="#557BBD" d="M233.724,300.289c0,0-117.411,0.471-172.48,0.681
		c-6.162,0.025-8.474-1.278-8.341-8.001c0.439-22.236,0.242-44.488,0.104-66.732c-0.027-4.407,0.484-6.642,6-6.63
		c82.741,0.171,249.289-0.101,249.822,0C291.119,240.437,233.724,300.289,233.724,300.289z"/>
	<path fill-rule="evenodd" clip-rule="evenodd" fill="#346CB2" d="M233.724,300.289l75.105-80.683c0,0,88.317-0.287,132.475-0.287
		c4.961-0.029,5.727,2.283,5.705,6.468c-0.126,23.031-0.159,46.065,0.023,69.097c0.036,4.613-1.512,6.509-6.08,6.022
		c-1.608-0.172-3.25-0.025-4.874-0.025C372.127,300.881,233.724,300.289,233.724,300.289z"/>
	<path fill-rule="evenodd" clip-rule="evenodd" fill="#45629F" d="M207.782,323.438c0,0-76.115,81.436-79.73,85.271
		c-39.832,2.76-67.592-17.193-74.192-53.501c-1.659-9.126-0.476-18.405-0.786-27.61c-0.173-5.129,3.395-4.617,6.644-4.62
		C77.619,322.961,207.782,323.438,207.782,323.438z"/>
	<path fill-rule="evenodd" clip-rule="evenodd" fill="#499BD0" d="M334.652,196.002c0,0,52.218-56.047,75.028-80.229
		c10.552-0.13,21.109-0.142,31.656-0.447c4.067-0.119,5.746,1.043,5.713,5.445c-0.177,23.566-0.116,47.133-0.043,70.699
		c0.01,3.167-0.569,5.188-4.349,5.147C406.658,196.224,334.652,196.002,334.652,196.002z"/>
</g>
<path fill-rule="evenodd" clip-rule="evenodd" fill="#68ABDD" d="M-24.689,168.071"/>
</svg>
