<svg width="128" height="128" viewBox="0 0 128 128" fill="none" xmlns="http://www.w3.org/2000/svg">
<circle cx="64" cy="64" r="58" fill="white"/>
<path d="M85.338 86.7442C86.2141 86.7442 86.9907 87.0816 87.6678 87.7564L94 94.6035C90.4954 98.9301 86.1743 102.244 81.0368 104.547C75.9392 106.849 69.8061 108 62.6375 108C56.2256 108 50.4509 106.908 45.3134 104.725C40.2158 102.542 35.8549 99.5056 32.2308 95.6157C28.6067 91.7257 25.8189 87.0816 23.8674 81.6834C21.9558 76.2851 21 70.3906 21 64C21 57.53 22.0355 51.6157 24.1064 46.2571C26.1773 40.8588 29.0846 36.2147 32.8282 32.3248C36.6116 28.4348 41.1118 25.4181 46.329 23.2747C51.5461 21.0916 57.3208 20 63.653 20C69.9454 20 75.521 21.032 80.3797 23.0961C85.2782 25.1601 89.44 27.8593 92.865 31.1935L87.4886 38.636C87.1699 39.1123 86.7518 39.5291 86.2341 39.8863C85.7561 40.2436 85.0791 40.4222 84.203 40.4222C83.6056 40.4222 82.9883 40.2634 82.3511 39.9459C81.7139 39.5886 81.0169 39.1719 80.2602 38.6955C79.5036 38.1795 78.6274 37.6238 77.6318 37.0284C76.6361 36.433 75.4812 35.8972 74.1669 35.4208C72.8527 34.9048 71.3194 34.488 69.5671 34.1705C67.8546 33.8133 65.8633 33.6346 63.5933 33.6346C59.7302 33.6346 56.1858 34.3293 52.9599 35.7185C49.7739 37.0681 47.0259 39.0528 44.716 41.6725C42.4062 44.2526 40.614 47.4281 39.3396 51.1989C38.0652 54.9301 37.428 59.1971 37.428 64C37.428 68.8426 38.105 73.1493 39.4591 76.9202C40.853 80.691 42.7248 83.8665 45.0745 86.4466C47.4242 89.0266 50.192 91.0113 53.3781 92.4005C56.5641 93.7501 59.9891 94.4249 63.653 94.4249C65.8434 94.4249 67.8148 94.3058 69.5671 94.0677C71.3593 93.8295 72.9921 93.4524 74.4656 92.9364C75.979 92.4204 77.3928 91.7655 78.707 90.9716C80.0611 90.138 81.3953 89.1258 82.7095 87.935C83.1078 87.5778 83.5259 87.3 83.964 87.1015C84.4021 86.8633 84.8601 86.7442 85.338 86.7442Z" fill="#3396AE"/>
<path d="M111 49L101.033 82H94.2554L88.1866 61.5477C88.0685 61.2306 87.9577 60.8833 87.8544 60.5058C87.751 60.1132 87.6477 59.7056 87.5443 59.2828C87.4409 59.7056 87.3376 60.1132 87.2342 60.5058C87.1308 60.8833 87.0201 61.2306 86.902 61.5477L80.7446 82H73.967L64 49H70.2903C70.94 49 71.4789 49.151 71.9072 49.453C72.3501 49.755 72.6381 50.1551 72.771 50.6534L77.2008 67.8669C77.3336 68.4104 77.4665 69.0069 77.5994 69.6561C77.7323 70.2903 77.8652 70.9547 77.9981 71.6493C78.2639 70.2299 78.5888 68.9691 78.9727 67.8669L84.1998 50.6534C84.3327 50.2306 84.6133 49.8531 85.0415 49.5209C85.4844 49.1736 86.016 49 86.6362 49H88.8511C89.5008 49 90.025 49.1585 90.4237 49.4756C90.8223 49.7776 91.125 50.1702 91.3318 50.6534L96.5146 67.8669C96.8985 68.9238 97.2234 70.1242 97.4892 71.4681C97.6073 70.7886 97.7254 70.1544 97.8435 69.5655C97.9764 68.9616 98.1093 68.3953 98.2422 67.8669L102.672 50.6534C102.79 50.2155 103.071 49.8305 103.514 49.4983C103.957 49.1661 104.488 49 105.108 49H111Z" fill="#3396AE"/>
</svg>
