<?xml version="1.0" encoding="utf-8"?>
<!-- Generator: Adobe Illustrator 22.1.0, SVG Export Plug-In . SVG Version: 6.00 Build 0)  -->
<svg version="1.1" id="Layer_1" xmlns="http://www.w3.org/2000/svg" xmlns:xlink="http://www.w3.org/1999/xlink" x="0px" y="0px"
	 viewBox="0 0 220 270" style="enable-background:new 0 0 220 270;" xml:space="preserve">
<style type="text/css">
	.st0{fill:#574030;}
	.st1{fill:#C59071;}
	.st2{fill:#EFBDA6;}
	.st3{fill:#FCDFD7;}
	.st4{fill:#C58F74;}
	.st5{fill:none;}
	.st6{fill:#FFFFFF;}
</style>
<path class="st0" d="M25.9,188c0,0,4.8,24.6,5,42.8c0.1,8.7-8.3,19.7-7.8,21.3c1.9,5,9.9,4.4,15.7-1c3.8-3.6,11.9,6.2,13.8,3.8
	c4.2-5.3,14,3.9,19.4,0c5.4-3.9,62.3,9,67.5,4s14.5-3.6,17.7-1.3c2.8,2.1,10.8-1.9,11.5,0c1.7,4.5,7.1-0.7,11.3,1.8s9.3-2,8.3-7
	c-0.4-1.9-2.2-8.8-3.2-19.2s6.9-39,6.9-39L25.9,188z"/>
<path class="st0" d="M215.8,138c-0.5-4.1-3-5-6-4c-1.3,0.4-3.5,2.6-5.5,4.9c0-10,1.3-26.9,1.3-31.9c0-11.5,4.3-29-1.2-41.5
	c-5.5-12.7-19-27.2-33-36.1c-17.8-11.4-40.1-21.2-59.9-25c-11.5-2.2-28.8-1-42.2,4.7C61,12.6,29.7,22.4,42.2,41.3
	C29,42.9,18.9,80.1,17.6,95.1c-0.6,6.7-1.8,13-1.7,28.8c0,2.6-0.1,7.2-0.3,13.4l0,0c-1.9-2.6-3.9-4.7-5.8-5.3c-2.8-0.9-5,1.1-6,6
	c-1,5-0.3,25.5,3.7,41c1,3.9,4.3,11,6.3,13s6,8,9,8c2,0,4-0.4,5.1-0.7c1.4,8.8,3,21.2,3,31.5c0.1,8.7-8.3,19.7-7.8,21.3
	c1.9,5,9.9,4.4,15.7-1c3.8-3.6,11.9,6.2,13.8,3.8c4.2-5.3,14,3.9,19.4,0l0,0c7.1,3.8,14.6,7.4,20.7,10.2c4.4,2.1,28.9,2.3,35.8,0.1
	c5.8-1.8,12.4-5.6,18.6-9.7c4.1-0.4,8.1,0.7,10,2c2.8,2.1,10.8-1.9,11.5,0c1.7,4.5,7.1-0.7,11.3,1.8s9.3-2,8.3-7
	c-0.4-1.9-2.2-8.8-3.2-19.2c-0.7-7.6,3.3-25,5.6-33.8c3.7,1.1,7.6,0.9,10.2-1.2c6.6-5.3,9.1-14,12-22
	C217.4,163.5,217.2,150.8,215.8,138z"/>
<path class="st1" d="M215.8,138c-0.5-4.1-3-5-6-4c-1.3,0.4-3.5,2.6-5.5,4.9c0,0,0,0,0,0.1c-2.3,2.5-5.8,7-6.6,10.7
	c-1.2,5.5-5.9,26.9-5.8,21.4c0.2-5.5,1.9-24,1.5-33.4c-0.3-9.4-5.3-23.6-8.5-32.4s-13.7-25-31.6-38.1C139.4,57,127.6,46.6,110,46.6
	c-4.3,0-11.1,1.4-15.7,1c-3.4-0.3-4.9-3.3-6.9-2c-2.5,1.8-5.5,3.9-8.4,5.4c-8.7,4.4-19.3,7.7-22.2,10.1c-4.8,3.9-13.1,5.2-16.7,11
	C35,80.5,35.6,93.5,35,96.7c-1,5.3-6.2,15.5-8.1,24.5s-2.5,27.9-3,32.2s-1.2,19.4-1,22.6c0.2,3.2-3-9.5-3.8-15.8
	c-0.7-6.2,0.6-17.6-3.6-22.7c-1.9-2.6-3.9-4.7-5.8-5.3c-2.8-0.9-5,1.1-6,6c-1,5-0.3,25.5,3.7,41c1,3.9,4.3,11,6.3,13s6,8,9,8
	s6-1,6-1s3.2,11.3,5.8,22.4c1.8,7.6,9.2,15.6,19.2,22.6s27,15.4,39,21c4.4,2.1,28.9,2.3,35.8,0.1c12.7-4,29.3-17.3,37.2-23.1
	c10.4-7.6,16-11.2,17.9-21.7c2.1-11.2,6.1-19.3,6.1-21.3c3.9,1.4,8.2,1.3,11-1c6.6-5.3,9.1-14,12-22
	C217.4,163.5,217.2,150.8,215.8,138z"/>
<path class="st2" d="M188.2,117c-0.4-1.7-0.7-3.6-1-5.5c-0.8-2.3-1.6-4.4-2.2-6.3c-3.2-8.8-13.7-25-31.6-38.1
	c-13.9-10.2-25.7-20.6-43.3-20.6c-4.3,0-11.1,1.4-15.7,1c-3.4-0.3-4.9-3.3-6.9-2c-2.5,1.8-5.5,3.9-8.4,5.4
	c-8.7,4.4-19.3,7.7-22.2,10.1c-4.8,3.9-13.1,5.2-16.7,11c-5.1,8.4-4.5,21.4-5.1,24.6c-1,5.3-6.2,15.5-8.1,24.5
	c-0.4,1.9-0.7,4.2-1,6.7c0,0.7,0.1,1.3,0.1,1.8c0.5,6.6,1.7,30.1,4,34.1c2.3,4,12.4,12.1,15.4,17.2c2.2,3.7,14.5,42.5,21.3,47.3
	c8.9,6.2,18.3,22.9,29,24.7s24.4,3.2,35.9,0.3s27-10.6,34-15.8s13.8-6.5,17.3-21.7c4.7-20,5.7-30.7,7.5-50.3
	C192.6,143.6,192.7,135.2,188.2,117z"/>
<path class="st3" d="M153.3,67.1c-4.1-3-8.1-6.1-12-8.8c-4-1.3-7.6-2.1-10.4-2.4c-11.8-1.2-30.8,0-43.8,3.7s-17.5,7-18.8,10.2
	c-3.3,8.4,9.3,9.7,8.6,14.2c-0.7,4.5-18.2,11-20.8,13.5s-9,7.8-8.2,10.7c0.7,2.2,37.9-1.3,44,5.1c3.9,4.2,10.9,14.6,11.3,20.5
	c0.9,12.8-0.4,22.5-0.7,26.8c-0.3,4.3-6.1,15.4,1.4,17.7c5,1.6,10-0.7,12.4-0.9c2.6-0.2,3.1,0.6,7.4,1.1s5.1-1.2,5.6-4
	s-4.9-9-6.8-11c-3.9-4.1-4.3-15.6-4-24.4c0.5-11.8,5-18.4,11.5-22.5s21.8-7.4,28-9.2c6.2-1.8,13.5-5.3,17-12.8
	c0.6-1.3,1.2-2.6,1.8-3.8C171.3,83,163.5,74.5,153.3,67.1z"/>
<path class="st4" d="M128.3,166.8c0.1-1.7,4.1,4.5,8.7,8s7.5,15.5,5.1,13.8s-5.2-4.4-8.1-4.2s-6.6,2.6-10.8,5.1
	c-4.2,2.5-6,2.1-8.4,2.1s-3.5,4.4-7,4.5s-6.6-2.1-8.1-2.2c-1.6-0.1-1.9,3.3-6.8,3.1s-9.3-0.8-11.1-3.6c-1.7-2.8-3.4-6.6-5.4-7.1
	s-4,4.5-7.4,5.6s6.7-9.4,9.1-13.2s5.9-9.8,8.1-12.7s6.1-2.5,7.9-2.8c1.9-0.3,3.4-4.8,3.9-3.9c0.5,0.9-1.7,6-2.8,7.3s-5,0.6-7.6,3.1
	s-5.4,7.6-4.3,11.6c0.7,2.6,3.5,4,5.3,3.3s2.2-2.7,4.4-3c2.2-0.3,4.9,0,7.8,2.1s5.5,3.1,7.4,3.1s4.1-1.3,8.1-3.5
	c4-2.1,6.9-1.4,8-0.9s1.4,2.6,2.4,2.5c1.8-0.2,3.9-2.1,4.8-4c0.6-1.3,0.5-4.3-0.3-6.9C130.4,171.5,128.2,168.4,128.3,166.8z"/>
<path class="st4" d="M47.5,114.8c4.6-3,3.9-9.5,9.9-9.6c7,0,27.8,3.3,29.4,4.1c5.3,2.7,7,6.7,10.6,13.5c2.4,4.6,3.7,12.4,3.2,14.8
	c-1.4,6.5-2.6,10.8-4.6,11.7s-1.8-6.2-5.3-6s-14.5,4.7-25.3,4.9s-15.6-7.7-19.9-8.7c-4.3-1.1-7-4.3-7.5-7
	C36.3,123.8,42.9,117.7,47.5,114.8z"/>
<g>
	<g>
		<defs>
			<path id="SVGID_1_" d="M67.4,138c-4.6,0.1-13.3-3.5-12.4-4.4c2.2-2.1,7.7-4.3,14.6-4c6.5,0.2,12.3,5.3,12.3,6.3s-2.6,1.2-6,1.5
				C74,137.6,71.2,137.9,67.4,138z"/>
		</defs>
		<clipPath id="SVGID_2_">
			<use xlink:href="#SVGID_1_"  style="overflow:visible;"/>
		</clipPath>
	</g>
	<path class="st5" d="M67.4,138c-4.6,0.1-13.3-3.5-12.4-4.4c2.2-2.1,7.7-4.3,14.6-4c6.5,0.2,12.3,5.3,12.3,6.3s-2.6,1.2-6,1.5
		C74,137.6,71.2,137.9,67.4,138z"/>
	<path class="st6" d="M67.4,138c-4.6,0.1-13.3-3.5-12.4-4.4c2.2-2.1,7.7-4.3,14.6-4c6.5,0.2,12.3,5.3,12.3,6.3s-2.6,1.2-6,1.5
		C74,137.6,71.2,137.9,67.4,138z"/>
	<path class="st0" d="M62.9,137.4c1.6,0.4,3.2,0.7,4.5,0.6c3.8-0.1,6.6-0.4,8.5-0.6c0.1,0,0.1,0,0.2,0c0.5-1,0.8-2.2,0.8-3.4
		c0-0.9-0.2-1.7-0.5-2.5c-2-1-4.4-1.8-6.8-1.9c-2.3-0.1-4.4,0.1-6.3,0.4c-0.7,1.1-1.2,2.5-1.2,4C62.1,135.2,62.4,136.4,62.9,137.4z"
		/>
</g>
<path d="M114.9,120.4"/>
<path class="st4" d="M174.9,119.6c-1.9-4.1-13.5-14.9-19.5-14.4s-20.1,5-24.8,9.8s-7.7,9.7-8.8,17.4s-0.9,11.2,1.9,15.9
	c0.9,1.6,2.6-5.7,3.9-4.8c2.9,2,5.7,2,9.4,2.4c9.6,0.9,19.5-3.1,21-3.8c-3.9,0.8-8,0.9-12.7,1c-2.6,0.1-5.2-0.6-5.8-1.3
	c-0.7-0.8,1.3-1.4,2.8-1.3c1.5,0.1,4.2,0.5,9.7,0.2c5-0.2,6.7-1.1,9.2-0.9c2.5,0.2,8.5,0.9,10.8-0.9c2.3-1.8-6.2-8.4-11.3-11.1
	c-5.1-2.7-12.7-4.1-17.8-2.6c-4.9,1.5-0.4-4.7,7.9-4.7s12.4,0.6,18.1,1.4C172.8,122.4,174.9,119.6,174.9,119.6"/>
<g>
	<path class="st6" d="M148.8,138.1c4.6,0.1,13.3-2,12.4-2.9c-2.2-2.1-6.3-5.2-14.9-5.1c-6.5,0.1-13.9,5.5-13.4,6.3
		c0.6,1.2,4.2,0.7,7.6,1C142.5,137.7,145.1,138,148.8,138.1z"/>
</g>
<path class="st0" d="M139.6,131.7c-0.4,0.9-0.6,1.9-0.6,2.9c0,1,0.2,1.9,0.5,2.7c0.3,0,0.6,0,1,0.1c2,0.3,4.6,0.6,8.3,0.7
	c1.2,0,2.7-0.1,4.3-0.3c0.5-1,0.7-2,0.7-3.2c0-1.4-0.4-2.7-1.1-3.9c-1.8-0.4-3.9-0.7-6.4-0.6C144,130.1,141.7,130.8,139.6,131.7z"/>
<path class="st0" d="M122.9,120.4c-1.8-2.7,2.2-9.3,3.7-10.1c3.8-2,22.8-4.5,28.8-5.1s16.3,8.4,19.5,14.4
	c-5.6-3.4-12.6-5.5-18.6-5.6c-8.4-0.1-18.3,1.4-22.9,2.6C129.5,117.7,122.9,120.4,122.9,120.4"/>
<path class="st0" d="M92.6,120.4c1.6-2.4-2.3-9-3.7-10.1c-4.1-3.1-21.1-7.1-31.3-6.7c-6,0.2-14.9,6.5-18.7,15
	c5.6-3.4,13.4-5.5,19.3-5.6c8.4-0.1,18.3,1.4,22.9,2.6C85,116.7,92.6,120.4,92.6,120.4z"/>
<path class="st2" d="M67.8,125.6c1.8-0.2,3.6-0.1,6.5,0.5c2.7,0.6,2.8,1.8,2.6,2.2c-0.1,0.3-0.8-1-5.9-1.4c-3.6-0.3-6.2-0.1-7-0.2
	C63.2,126.5,66.1,125.8,67.8,125.6z"/>
<path class="st3" d="M142.8,177.9c1.4,1.7,2.6,3.6,3.4,5.7c2.3,6.2,5.7,10.3,7.2,10.3c6.7,0,11.5-15.8,16-18s15.3-9.3,16.7-13.5
	c1.3-4.2-1.7-17.2-11.8-17.5c-10.2-0.3-16,5.4-22.8,5.4c-6.8,0.1-19.2-1-22.7-1.9s-4.5,9.7,0,15.7
	C132.4,168.9,138.6,172.7,142.8,177.9"/>
<path class="st4" d="M141.8,202.9c-0.6-1.4-4,1.3-5.9,1.7c-2.5,0.5-16-1.2-20.5-1c-7,0.3-8.5,1.6-10.8,1.4
	c-2.3-0.2-5.4-1.9-10.4-1.9s-13.2,1.3-15.5,0.7c-1.3-0.3-2.9-4.2-2.2-6.7c0.4-1.3-2.7-0.7-5.3,2.7c-2.2,2.9-2.1,7.3-1.1,8.5
	c1.4,1.7,3.5,3.6,7.3,5.8c3.8,2.1,5.3,3.7,8.4,5c2.6,1.1,3.9-5.9,4.8-7s10.4,0.3,15.6,0.3s16.5-2.5,17.3-1.8c1.5,1.3-1.8,5.4-0.1,6
	c0.8,0.2,2.8-1.7,5.9-3.1c1.7-0.7,4.9-2.8,6.3-3.7c1.4-0.8,3.6-2.2,4.8-2.6C141.3,207,142.3,204.4,141.8,202.9z"/>
<path class="st4" d="M92.3,219.3c2.8,0.8,7.5,3.6,13.7,3.8c6.2,0.1,9-2,12.1-3s-3.7,6.1-9.2,8c-3.4,1.1-8,1.6-11.7-2.1
	C94,222.7,91.1,219,92.3,219.3z"/>
<path class="st3" d="M50.6,150.2c3.2-1.8,6.6,3.8,14.4,3.4s14.1-3.7,15.4-2.5c1.4,1.2-1.8,5.2-4.7,8.2c-2.8,3-6.7,6.2-13.9,5.6
	C54.7,164.2,48.1,151.6,50.6,150.2z"/>
<path class="st3" d="M102.3,215.3c1.1-0.8,4.3-0.2,6.7-0.1c1.9,0.1,9.1-1.2,10-0.8c1.2,0.5-6.4,3-10.1,3
	C106.8,217.3,101.2,216.1,102.3,215.3z"/>
</svg>
