<?xml version="1.0" encoding="utf-8"?>
<!-- Generator: Adobe Illustrator 21.0.0, SVG Export Plug-In . SVG Version: 6.00 Build 0)  -->
<svg version="1.1" id="Layer_1" xmlns="http://www.w3.org/2000/svg" xmlns:xlink="http://www.w3.org/1999/xlink" x="0px" y="0px"
	 viewBox="0 0 2000 2000" style="enable-background:new 0 0 2000 2000;" xml:space="preserve">
<style type="text/css">
	.st0{fill:#FFFFFF;}
</style>
<g>
	<path class="st0" d="M1067.9,1045.5c-0.4-0.5-1-1-1.7-1.3c-0.7-0.3-1.5-0.5-2.4-0.5c-1.8,0-3.2,0.5-4.2,1.5s-1.7,2.5-2,4.3h11.7
		c0-0.8-0.1-1.6-0.3-2.3C1068.7,1046.6,1068.3,1046,1067.9,1045.5z"/>
	<path class="st0" d="M912,962.8c0.9,0.7,2.1,1,3.6,1c1.8,0,3.4-0.3,4.8-1s2.7-1.7,3.9-3v-6.3c-2.6,0.1-4.8,0.3-6.5,0.7
		c-1.8,0.3-3.2,0.7-4.2,1.2c-1.1,0.5-1.8,1.1-2.3,1.8s-0.7,1.4-0.7,2.2C910.7,961,911.1,962.1,912,962.8z"/>
	<path class="st0" d="M865,1043.6c-1.5,0-2.7,0.4-3.4,1.1c-0.8,0.7-1.1,1.7-1.1,3c0,0.6,0.1,1.2,0.3,1.7s0.5,1,0.8,1.3
		c0.3,0.3,0.8,0.7,1.4,0.9c0.6,0.2,1.2,0.3,2,0.3s1.4-0.1,2-0.3c0.6-0.2,1-0.5,1.4-0.9c0.4-0.4,0.7-0.8,0.8-1.3
		c0.2-0.5,0.3-1.1,0.3-1.7c0-1.3-0.4-2.3-1.1-3C867.7,1044,866.5,1043.6,865,1043.6z"/>
	<path class="st0" d="M1119.5,1045.5c-0.4-0.5-1-1-1.7-1.3c-0.7-0.3-1.5-0.5-2.4-0.5c-1.8,0-3.2,0.5-4.2,1.5s-1.7,2.5-2,4.3h11.7
		c0-0.8-0.1-1.6-0.3-2.3C1120.3,1046.6,1120,1046,1119.5,1045.5z"/>
	<path class="st0" d="M1038.1,1038c-1-1.1-2.2-1.9-3.6-2.5s-3-0.9-4.8-0.9h-7v25.4h7c1.8,0,3.4-0.3,4.8-0.9s2.6-1.4,3.6-2.5
		s1.8-2.4,2.3-4s0.8-3.4,0.8-5.3c0-1.9-0.3-3.8-0.8-5.3C1039.9,1040.4,1039.1,1039.1,1038.1,1038z"/>
	<path class="st0" d="M925.4,1045.5c-0.5-0.5-1-1-1.7-1.3c-0.7-0.3-1.5-0.5-2.4-0.5c-1.8,0-3.2,0.5-4.2,1.5s-1.7,2.5-2,4.3h11.7
		c0-0.8-0.1-1.6-0.3-2.3C926.2,1046.6,925.9,1046,925.4,1045.5z"/>
	<path class="st0" d="M972.7,1051.4c-0.6,1.1-0.9,2.3-0.9,3.5c0,0.9,0.2,1.7,0.5,2.5c0.3,0.7,0.7,1.4,1.3,1.9
		c0.5,0.5,1.2,0.9,1.9,1.2s1.5,0.4,2.3,0.4c1.5,0,2.8-0.2,4-0.7s2.3-1.1,3.3-1.9l-9.5-9.8C974.2,1049.4,973.3,1050.3,972.7,1051.4z"
		/>
	<path class="st0" d="M1010,943.3c-0.3-1-0.8-1.9-1.5-2.7c-0.7-0.8-1.5-1.4-2.5-1.8c-1-0.4-2.2-0.7-3.5-0.7c-2.6,0-4.6,0.7-6.1,2.2
		s-2.4,3.6-2.8,6.3h16.9C1010.5,945.4,1010.3,944.3,1010,943.3z"/>
	<path class="st0" d="M859.2,1066.8c0,0.4,0.1,0.9,0.3,1.3s0.6,0.7,1.1,1c0.5,0.3,1.1,0.5,1.9,0.7c0.8,0.2,1.7,0.2,2.9,0.2
		c1.2,0,2.1-0.1,3-0.3c0.9-0.2,1.5-0.4,2.1-0.7c0.5-0.3,0.9-0.7,1.2-1.1c0.2-0.4,0.4-0.9,0.4-1.4s-0.2-0.9-0.5-1.2
		c-0.3-0.3-0.7-0.6-1.2-0.7c-0.5-0.2-1.1-0.3-1.8-0.4c-0.7-0.1-1.4-0.1-2.2-0.2c-0.8,0-1.6-0.1-2.4-0.1s-1.6-0.1-2.4-0.2
		c-0.7,0.4-1.2,0.8-1.7,1.4C859.4,1065.6,859.2,1066.2,859.2,1066.8z"/>
	<path class="st0" d="M1215.8,1045.5c-0.4-0.5-1-1-1.7-1.3c-0.7-0.3-1.5-0.5-2.4-0.5c-1.8,0-3.2,0.5-4.2,1.5s-1.7,2.5-2,4.3h11.7
		c0-0.8-0.1-1.6-0.3-2.3C1216.6,1046.6,1216.2,1046,1215.8,1045.5z"/>
	<path class="st0" d="M809.4,1045.5c-0.5-0.5-1-1-1.7-1.3c-0.7-0.3-1.5-0.5-2.4-0.5c-1.8,0-3.2,0.5-4.2,1.5s-1.7,2.5-2,4.3h11.7
		c0-0.8-0.1-1.6-0.3-2.3C810.2,1046.6,809.9,1046,809.4,1045.5z"/>
	<path class="st0" d="M1188,1046c-0.4-0.7-1-1.1-1.6-1.4c-0.6-0.3-1.4-0.4-2.2-0.4c-1.3,0-2.4,0.3-3.3,0.8s-1.8,1.3-2.6,2.3v11.5
		c0.7,0.9,1.5,1.4,2.3,1.8c0.8,0.3,1.7,0.5,2.7,0.5c0.9,0,1.8-0.2,2.5-0.5c0.8-0.4,1.4-0.9,1.9-1.6c0.5-0.7,0.9-1.6,1.2-2.7
		c0.3-1.1,0.4-2.4,0.4-3.9s-0.1-2.8-0.4-3.8C1188.8,1047.5,1188.5,1046.7,1188,1046z"/>
	<path class="st0" d="M1154.8,1044.1c-2.2,0-3.8,0.7-4.8,2.2s-1.6,3.6-1.6,6.3c0,2.7,0.5,4.8,1.6,6.3c1,1.4,2.6,2.2,4.8,2.2
		c2.1,0,3.7-0.7,4.7-2.2c1-1.4,1.5-3.5,1.5-6.3c0-2.8-0.5-4.9-1.5-6.3C1158.5,1044.8,1157,1044.1,1154.8,1044.1z"/>
	<path class="st0" d="M0,0v2000h2000V0H0z M1147,932.2h8.9v23.6c0,2.3,0.5,4,1.6,5.3c1.1,1.2,2.6,1.9,4.7,1.9c1.5,0,3-0.3,4.3-1
		c1.4-0.7,2.6-1.6,3.8-2.8v-26.9h8.9v37.2h-5.5c-1.2,0-1.9-0.5-2.2-1.6l-0.6-3c-1.5,1.5-3.2,2.8-5,3.7c-1.8,0.9-4,1.4-6.5,1.4
		c-2,0-3.8-0.3-5.4-1c-1.6-0.7-2.9-1.7-3.9-2.9c-1.1-1.3-1.9-2.7-2.4-4.5c-0.5-1.7-0.8-3.6-0.8-5.7L1147,932.2L1147,932.2z
		 M1078.5,917c0.8,0,1.6,0.2,2.1,0.6c0.5,0.4,0.9,0.9,1.1,1.6l8.9,31.3c0.2,0.8,0.4,1.6,0.6,2.5c0.2,0.9,0.4,1.9,0.6,2.8
		c0.2-1,0.4-2,0.6-2.9c0.2-0.9,0.5-1.7,0.7-2.5l10.3-31.3c0.2-0.6,0.6-1.1,1.1-1.5c0.6-0.5,1.3-0.7,2.1-0.7h2.9
		c0.8,0,1.5,0.2,2.1,0.6c0.5,0.4,0.9,0.9,1.2,1.6l10.3,31.3c0.5,1.5,1,3.2,1.4,5.2c0.3-1.9,0.7-3.6,1.1-5.2l8.9-31.3
		c0.1-0.6,0.5-1.1,1.1-1.6c0.6-0.5,1.3-0.7,2.1-0.7h7.6l-16.3,52.6h-8.8l-11.4-35.8c-0.3-0.9-0.6-1.9-0.9-3.2
		c-0.1,0.6-0.3,1.2-0.4,1.7c-0.1,0.5-0.3,1-0.5,1.5l-11.6,35.8h-8.8l-16.2-52.4H1078.5L1078.5,917z M1041.2,957.1
		c-0.5-0.6-1.2-1-2.1-1.4c-0.9-0.4-1.8-0.8-2.9-1.1c-1.1-0.3-2.2-0.7-3.4-1.1c-1.1-0.4-2.3-0.8-3.4-1.4c-1.1-0.5-2.1-1.2-2.9-2
		c-0.9-0.8-1.5-1.8-2.1-2.9c-0.5-1.2-0.8-2.6-0.8-4.2c0-1.5,0.3-3,0.9-4.3c0.6-1.4,1.5-2.6,2.7-3.6c1.2-1,2.6-1.8,4.4-2.5
		c1.8-0.6,3.8-0.9,6.1-0.9c2.6,0,4.9,0.4,7,1.3c2.1,0.8,3.9,2,5.3,3.3l-2,3.2c-0.2,0.4-0.5,0.7-0.8,0.8c-0.3,0.2-0.6,0.2-1,0.2
		s-0.9-0.1-1.4-0.4c-0.5-0.2-1.1-0.5-1.7-0.8c-0.7-0.3-1.4-0.6-2.2-0.8c-0.8-0.2-1.8-0.4-3-0.4c-1.8,0-3.1,0.4-4.1,1.1
		c-1,0.7-1.5,1.7-1.5,2.9c0,0.8,0.3,1.5,0.8,2s1.2,1,2.1,1.4c0.9,0.4,1.8,0.8,2.9,1.1s2.2,0.7,3.3,1.1c1.1,0.4,2.2,0.8,3.3,1.3
		c1.1,0.5,2.1,1.1,2.9,1.9c0.9,0.8,1.5,1.7,2.1,2.7c0.5,1.1,0.8,2.3,0.8,3.8c0,1.8-0.3,3.4-1,4.9c-0.6,1.5-1.6,2.8-2.8,3.9
		c-1.2,1.1-2.8,2-4.7,2.6c-1.8,0.6-4,0.9-6.4,0.9c-1.3,0-2.5-0.1-3.7-0.3c-1.2-0.2-2.4-0.5-3.5-1c-1.1-0.4-2.2-0.9-3.1-1.4
		c-1-0.6-1.8-1.2-2.5-1.8l2.1-3.4c0.3-0.4,0.6-0.7,0.9-0.9c0.3-0.2,0.8-0.3,1.4-0.3s1.1,0.2,1.6,0.5s1.1,0.7,1.7,1
		c0.6,0.3,1.4,0.7,2.3,1s2,0.5,3.4,0.5c1.1,0,2-0.1,2.7-0.4c0.8-0.3,1.4-0.6,1.9-1c0.5-0.4,0.9-0.9,1.1-1.4c0.2-0.5,0.3-1.1,0.3-1.7
		C1042,958.3,1041.7,957.6,1041.2,957.1z M985.7,942.9c0.8-2.2,2-4.2,3.5-5.8c1.5-1.7,3.4-3,5.6-3.9c2.2-1,4.7-1.4,7.5-1.4
		c2.3,0,4.5,0.4,6.5,1.1c2,0.7,3.7,1.8,5.1,3.3c1.4,1.4,2.5,3.2,3.4,5.3c0.8,2.1,1.2,4.5,1.2,7.2c0,1.4-0.1,2.3-0.4,2.7
		c-0.3,0.5-0.8,0.7-1.7,0.7h-23c0.1,1.9,0.5,3.6,1,4.9s1.2,2.5,2.1,3.4c0.9,0.9,1.9,1.6,3.1,2c1.2,0.4,2.5,0.7,4,0.7
		s2.7-0.2,3.7-0.5c1.1-0.3,2-0.7,2.8-1.1s1.5-0.8,2.1-1.1c0.6-0.3,1.2-0.5,1.7-0.5c0.7,0,1.3,0.3,1.7,0.8l2.6,3.3
		c-1,1.2-2.1,2.1-3.3,2.9c-1.2,0.8-2.5,1.4-3.9,1.9c-1.3,0.5-2.7,0.8-4.1,1s-2.7,0.3-4,0.3c-2.6,0-5-0.4-7.2-1.3
		c-2.2-0.9-4.2-2.1-5.8-3.8c-1.6-1.7-2.9-3.8-3.9-6.2c-1-2.4-1.4-5.3-1.4-8.6C984.5,947.5,984.9,945.1,985.7,942.9z M968.6,915.6
		h8.9v53.8h-8.9V915.6L968.6,915.6z M941.5,932.2h5.3c0.9,0,1.6,0.2,1.9,0.5s0.6,0.9,0.7,1.8l0.5,4.2c1.2-2.2,2.5-4,4.1-5.2
		s3.5-1.9,5.7-1.9c1.7,0,3.1,0.4,4.1,1.1l-0.6,6.7c-0.1,0.4-0.3,0.7-0.5,0.9s-0.5,0.3-0.9,0.3c-0.4,0-0.9-0.1-1.6-0.2
		c-0.7-0.1-1.4-0.2-2.1-0.2c-1,0-1.9,0.1-2.6,0.4c-0.7,0.3-1.5,0.7-2.1,1.2c-0.6,0.5-1.2,1.2-1.6,2c-0.5,0.8-0.9,1.7-1.3,2.6v22.9
		h-8.9L941.5,932.2L941.5,932.2z M902.6,957.1c0.3-0.9,0.8-1.8,1.5-2.7c0.7-0.8,1.6-1.6,2.8-2.4c1.1-0.7,2.5-1.4,4.2-2
		c1.7-0.6,3.6-1,5.8-1.4c2.2-0.3,4.7-0.6,7.5-0.6v-2.2c0-2.5-0.5-4.3-1.6-5.5c-1.1-1.2-2.6-1.8-4.6-1.8c-1.4,0-2.7,0.2-3.6,0.5
		s-1.8,0.7-2.5,1.1c-0.7,0.4-1.4,0.8-2,1.1c-0.6,0.3-1.2,0.5-2,0.5c-0.6,0-1.2-0.2-1.6-0.5s-0.8-0.7-1-1.1l-1.6-2.9
		c4.3-3.9,9.4-5.9,15.4-5.9c2.2,0,4.1,0.4,5.8,1.1c1.7,0.7,3.2,1.7,4.3,3c1.2,1.3,2.1,2.8,2.7,4.5c0.6,1.7,0.9,3.7,0.9,5.8v23.5
		h-4.1c-0.8,0-1.5-0.1-2-0.4s-0.8-0.8-1.1-1.5l-0.8-2.7c-0.9,0.8-1.9,1.6-2.8,2.2c-0.9,0.6-1.8,1.2-2.8,1.6c-1,0.4-2,0.8-3.1,1
		c-1.1,0.2-2.3,0.3-3.6,0.3c-1.6,0-3-0.2-4.3-0.6c-1.3-0.4-2.5-1.1-3.4-1.9c-1-0.8-1.7-1.9-2.2-3.2s-0.8-2.7-0.8-4.4
		C902.1,959,902.3,958,902.6,957.1z M863.9,915.6h8.9v20.6c1.4-1.4,3-2.5,4.8-3.3c1.7-0.8,3.8-1.3,6.1-1.3c2,0,3.8,0.3,5.4,1
		c1.6,0.7,2.9,1.7,3.9,2.9s1.8,2.7,2.4,4.5c0.5,1.7,0.8,3.6,0.8,5.7v23.7h-8.9v-23.7c0-2.3-0.5-4-1.6-5.3c-1-1.2-2.6-1.9-4.7-1.9
		c-1.5,0-3,0.4-4.3,1c-1.4,0.7-2.6,1.7-3.8,2.9v26.9H864L863.9,915.6L863.9,915.6z M816.2,932.4c1.3-3.3,3-6.1,5.3-8.5
		c2.3-2.4,5-4.2,8.2-5.5c3.2-1.3,6.7-2,10.5-2s7.2,0.6,10.2,1.9s5.5,2.9,7.6,4.9l-3.3,4.5c-0.2,0.3-0.4,0.5-0.7,0.8
		c-0.3,0.2-0.7,0.3-1.2,0.3c-0.4,0-0.7-0.1-1.1-0.3c-0.4-0.2-0.8-0.5-1.3-0.8s-1-0.6-1.6-1c-0.6-0.4-1.3-0.7-2.1-1
		c-0.8-0.3-1.7-0.6-2.8-0.8c-1-0.2-2.3-0.3-3.6-0.3c-2.3,0-4.5,0.4-6.4,1.2c-1.9,0.8-3.6,2-5,3.6c-1.4,1.6-2.5,3.5-3.3,5.8
		s-1.2,4.9-1.2,7.8c0,2.9,0.4,5.6,1.2,7.9s2,4.2,3.4,5.8c1.4,1.6,3.1,2.8,5,3.6c1.9,0.8,4,1.2,6.2,1.2c1.3,0,2.5-0.1,3.6-0.2
		c1.1-0.1,2.1-0.4,3-0.7c0.9-0.3,1.8-0.7,2.6-1.2s1.6-1.1,2.4-1.8c0.2-0.2,0.5-0.4,0.8-0.5c0.3-0.1,0.5-0.2,0.8-0.2
		c0.5,0,1,0.2,1.4,0.6l3.8,4.2c-2.1,2.6-4.7,4.6-7.8,6c-3.1,1.4-6.8,2.1-11.2,2.1c-3.9,0-7.4-0.7-10.5-2c-3.1-1.3-5.8-3.2-8-5.5
		c-2.2-2.4-3.9-5.2-5.1-8.5c-1.2-3.3-1.8-6.9-1.8-10.8C814.3,939.3,815,935.7,816.2,932.4z M813.9,997.2h369v7.2h-369V997.2
		L813.9,997.2z M788.3,1054.6c-0.9,2.2-2.1,4.1-3.7,5.7c-1.6,1.6-3.5,2.8-5.8,3.7c-2.2,0.9-4.8,1.3-7.5,1.3h-13.8v-36.2h13.8
		c2.8,0,5.2,0.4,7.5,1.3s4.2,2.1,5.8,3.7c1.6,1.6,2.8,3.5,3.7,5.7c0.9,2.2,1.3,4.7,1.3,7.3C789.6,1050,789.2,1052.4,788.3,1054.6z
		 M799.7,1056.8c0.4,1,0.8,1.8,1.5,2.4c0.6,0.6,1.3,1.1,2.1,1.4c0.8,0.3,1.7,0.5,2.7,0.5s1.9-0.1,2.6-0.3c0.7-0.2,1.4-0.5,1.9-0.8
		s1-0.5,1.4-0.8c0.4-0.3,0.8-0.4,1.2-0.4c0.5,0,0.9,0.2,1.2,0.6l1.8,2.2c-0.7,0.8-1.5,1.5-2.3,2s-1.7,1-2.7,1.3
		c-0.9,0.3-1.9,0.6-2.8,0.7s-1.9,0.2-2.8,0.2c-1.8,0-3.4-0.3-5-0.9c-1.5-0.6-2.9-1.5-4-2.6c-1.1-1.2-2-2.6-2.7-4.3s-1-3.7-1-5.9
		c0-1.8,0.3-3.4,0.8-4.9c0.6-1.5,1.4-2.9,2.4-4c1.1-1.1,2.3-2,3.9-2.7c1.6-0.7,3.2-1,5.2-1c1.6,0,3.1,0.3,4.5,0.8
		c1.4,0.5,2.5,1.3,3.5,2.3s1.8,2.2,2.3,3.7c0.6,1.4,0.8,3.1,0.8,4.9c0,0.9-0.1,1.6-0.3,1.9c-0.2,0.3-0.6,0.5-1.2,0.5H799
		C799.1,1054.7,799.3,1055.8,799.7,1056.8z M837.6,1060.7c-0.4,1-1.1,1.9-2,2.7c-0.9,0.8-1.9,1.4-3.2,1.8c-1.3,0.4-2.7,0.6-4.4,0.6
		c-0.9,0-1.7-0.1-2.6-0.2c-0.8-0.2-1.7-0.4-2.4-0.7c-0.8-0.3-1.5-0.6-2.2-1c-0.7-0.4-1.2-0.8-1.7-1.2l1.4-2.3
		c0.2-0.3,0.4-0.5,0.7-0.7c0.3-0.2,0.6-0.2,1-0.2c0.4,0,0.7,0.1,1.1,0.3c0.3,0.2,0.7,0.4,1.2,0.7s1,0.5,1.6,0.7
		c0.6,0.2,1.4,0.3,2.3,0.3c0.7,0,1.4-0.1,1.9-0.3c0.5-0.2,1-0.4,1.3-0.7c0.3-0.3,0.6-0.6,0.8-1c0.2-0.4,0.2-0.8,0.2-1.2
		c0-0.6-0.2-1.1-0.5-1.5c-0.4-0.4-0.8-0.7-1.4-1c-0.6-0.3-1.3-0.5-2-0.8c-0.8-0.2-1.5-0.5-2.3-0.7c-0.8-0.3-1.6-0.6-2.3-0.9
		c-0.7-0.3-1.4-0.8-2-1.4c-0.6-0.6-1.1-1.2-1.4-2c-0.4-0.8-0.5-1.8-0.5-2.9c0-1.1,0.2-2.1,0.6-3c0.4-0.9,1-1.8,1.8-2.5
		c0.8-0.7,1.8-1.3,3-1.7c1.2-0.4,2.6-0.6,4.2-0.6c1.8,0,3.4,0.3,4.8,0.9c1.4,0.6,2.7,1.3,3.6,2.3l-1.4,2.2c-0.2,0.3-0.3,0.5-0.5,0.6
		c-0.2,0.1-0.4,0.2-0.7,0.2s-0.6-0.1-1-0.2c-0.3-0.2-0.7-0.4-1.2-0.6c-0.5-0.2-1-0.4-1.5-0.6c-0.5-0.2-1.3-0.2-2-0.2
		c-1.2,0-2.2,0.3-2.9,0.8c-0.7,0.5-1,1.2-1,2c0,0.6,0.2,1,0.5,1.4c0.4,0.4,0.8,0.7,1.4,1c0.6,0.3,1.3,0.5,2,0.8
		c0.8,0.2,1.5,0.5,2.3,0.7c0.8,0.3,1.5,0.6,2.3,0.9c0.8,0.3,1.4,0.8,2,1.3c0.6,0.5,1.1,1.2,1.4,1.9c0.4,0.7,0.5,1.6,0.5,2.7
		C838.3,1058.5,838.1,1059.6,837.6,1060.7z M849.3,1065.4h-6.2v-25.7h6.2V1065.4z M849.9,1033.8c-0.2,0.5-0.5,0.9-0.9,1.2
		c-0.4,0.4-0.8,0.6-1.3,0.8c-0.5,0.2-1,0.3-1.5,0.3s-1-0.1-1.5-0.3c-0.5-0.2-0.9-0.5-1.2-0.8s-0.6-0.8-0.8-1.2
		c-0.2-0.4-0.3-1-0.3-1.5c0-0.6,0.1-1.1,0.3-1.6s0.5-0.9,0.8-1.2c0.3-0.4,0.8-0.6,1.2-0.8c0.5-0.2,1-0.3,1.5-0.3s1.1,0.1,1.5,0.3
		c0.5,0.2,0.9,0.5,1.3,0.8s0.6,0.8,0.9,1.2c0.2,0.5,0.3,1,0.3,1.6C850.2,1032.8,850.1,1033.3,849.9,1033.8z M878.1,1042.9
		c0,0.7-0.4,1.2-1.3,1.3l-2.3,0.4c0.3,0.9,0.5,1.9,0.5,2.9c0,1.3-0.3,2.4-0.8,3.4s-1.2,1.9-2.1,2.6c-0.9,0.7-2,1.3-3.2,1.7
		c-1.2,0.4-2.5,0.6-4,0.6c-0.5,0-1,0-1.5-0.1c-0.5-0.1-0.9-0.1-1.4-0.2c-0.8,0.5-1.2,1-1.2,1.6c0,0.5,0.2,0.9,0.7,1.1
		c0.5,0.2,1.1,0.4,1.9,0.5c0.8,0.1,1.7,0.2,2.7,0.2s2,0.1,3.1,0.2c1,0.1,2.1,0.2,3.1,0.4s1.9,0.5,2.7,1c0.8,0.4,1.4,1.1,1.9,1.8
		c0.5,0.8,0.7,1.8,0.7,3c0,1.1-0.3,2.2-0.8,3.3c-0.6,1.1-1.4,2-2.4,2.8c-1.1,0.8-2.4,1.5-3.9,2s-3.3,0.8-5.3,0.8
		c-1.9,0-3.6-0.2-5-0.6c-1.4-0.4-2.6-0.9-3.6-1.5s-1.7-1.3-2.1-2.2s-0.7-1.7-0.7-2.6c0-1.2,0.4-2.2,1.1-3c0.7-0.8,1.7-1.5,3-1.9
		c-0.7-0.3-1.2-0.8-1.6-1.4c-0.4-0.6-0.6-1.4-0.6-2.3c0-0.4,0.1-0.8,0.2-1.2c0.1-0.4,0.3-0.8,0.6-1.2c0.3-0.4,0.6-0.8,1-1.1
		c0.4-0.4,0.9-0.7,1.5-1c-1.3-0.7-2.3-1.6-3.1-2.8c-0.7-1.2-1.1-2.5-1.1-4.1c0-1.3,0.3-2.4,0.8-3.4s1.2-1.9,2.1-2.6
		c0.9-0.7,2-1.3,3.2-1.7s2.6-0.6,4.1-0.6c1.1,0,2.1,0.1,3.1,0.3c1,0.2,1.8,0.6,2.7,1h7.4L878.1,1042.9L878.1,1042.9z M904.4,1065.4
		h-6.2v-16.3c0-1.6-0.4-2.8-1.1-3.6c-0.7-0.9-1.8-1.3-3.3-1.3c-1.1,0-2.1,0.2-3,0.7s-1.8,1.1-2.7,2v18.6H882v-25.7h3.8
		c0.8,0,1.3,0.4,1.6,1.1l0.4,2c0.5-0.5,1.1-1,1.6-1.4c0.6-0.4,1.2-0.8,1.8-1.1c0.6-0.3,1.3-0.6,2.1-0.7c0.7-0.2,1.5-0.3,2.4-0.3
		c1.4,0,2.6,0.2,3.7,0.7s2,1.1,2.7,2c0.7,0.9,1.3,1.9,1.7,3.1c0.4,1.2,0.6,2.5,0.6,3.9V1065.4L904.4,1065.4z M915.7,1056.8
		c0.4,1,0.8,1.8,1.5,2.4c0.6,0.6,1.3,1.1,2.1,1.4c0.8,0.3,1.7,0.5,2.7,0.5s1.9-0.1,2.6-0.3c0.7-0.2,1.4-0.5,1.9-0.8s1-0.5,1.4-0.8
		c0.4-0.3,0.8-0.4,1.2-0.4c0.5,0,0.9,0.2,1.2,0.6l1.8,2.2c-0.7,0.8-1.5,1.5-2.3,2s-1.7,1-2.7,1.3c-0.9,0.3-1.9,0.6-2.8,0.7
		s-1.9,0.2-2.8,0.2c-1.8,0-3.4-0.3-5-0.9c-1.5-0.6-2.9-1.5-4-2.6c-1.1-1.2-2-2.6-2.7-4.3s-1-3.7-1-5.9c0-1.8,0.3-3.4,0.8-4.9
		c0.6-1.5,1.4-2.9,2.4-4c1.1-1.1,2.3-2,3.9-2.7c1.6-0.7,3.2-1,5.2-1c1.6,0,3.1,0.3,4.5,0.8s2.5,1.3,3.5,2.3s1.8,2.2,2.3,3.7
		c0.6,1.4,0.8,3.1,0.8,4.9c0,0.9-0.1,1.6-0.3,1.9c-0.2,0.3-0.6,0.5-1.2,0.5H915C915.1,1054.7,915.3,1055.8,915.7,1056.8z
		 M952,1044.7c-0.1,0.3-0.2,0.5-0.4,0.6c-0.2,0.1-0.4,0.2-0.6,0.2s-0.6,0-1.1-0.1s-1-0.1-1.4-0.1c-0.7,0-1.3,0.1-1.8,0.3
		c-0.5,0.2-1,0.5-1.4,0.9c-0.4,0.4-0.8,0.8-1.1,1.4c-0.3,0.5-0.6,1.1-0.9,1.8v15.8h-6.2v-25.7h3.6c0.6,0,1.1,0.1,1.3,0.3
		c0.2,0.2,0.4,0.6,0.5,1.2l0.4,2.9c0.8-1.5,1.8-2.7,2.8-3.6s2.4-1.3,3.9-1.3c1.2,0,2.1,0.3,2.8,0.8L952,1044.7z M993.6,1065.4
		c-0.6,0-1.1-0.1-1.5-0.2c-0.4-0.1-0.8-0.5-1.2-0.9l-2.5-2.6c-1.6,1.3-3.4,2.3-5.3,3.1c-2,0.7-4.1,1.1-6.4,1.1
		c-1.4,0-2.7-0.2-4.1-0.7c-1.3-0.5-2.5-1.2-3.6-2.1c-1-0.9-1.9-2-2.5-3.3c-0.6-1.3-1-2.7-1-4.3c0-1.1,0.2-2.2,0.5-3.2
		c0.4-1,0.9-1.9,1.5-2.8s1.4-1.6,2.3-2.3c0.9-0.7,1.9-1.3,3-1.8c-0.9-1.2-1.5-2.5-2-3.7c-0.4-1.2-0.6-2.4-0.6-3.6
		c0-1.2,0.2-2.4,0.7-3.6c0.5-1.1,1.1-2.1,2-2.9c0.9-0.8,1.9-1.5,3.2-2c1.3-0.5,2.7-0.7,4.3-0.7c1.5,0,2.8,0.2,3.9,0.7s2.2,1.1,3,1.8
		c0.8,0.7,1.5,1.6,1.9,2.6c0.4,1,0.8,2,0.8,3l-3.9,0.8c-0.7,0.1-1.3-0.2-1.6-0.9c-0.2-0.4-0.3-0.8-0.6-1.2c-0.2-0.4-0.5-0.7-0.9-1
		c-0.3-0.3-0.7-0.5-1.2-0.7c-0.4-0.2-1-0.3-1.6-0.3c-0.7,0-1.3,0.1-1.9,0.4c-0.6,0.2-1,0.6-1.4,1s-0.7,0.9-0.9,1.4
		c-0.2,0.5-0.3,1.1-0.3,1.7c0,0.5,0.1,1,0.2,1.4c0.1,0.4,0.3,0.9,0.5,1.4c0.2,0.5,0.5,0.9,0.9,1.4s0.8,1,1.4,1.6l9.6,10
		c0.6-1.1,1-2.2,1.3-3.3c0.3-1.2,0.6-2.4,0.7-3.6c0.1-0.4,0.2-0.7,0.4-0.9c0.2-0.2,0.5-0.3,0.9-0.3h3.8c0,2.2-0.3,4.3-0.9,6.3
		c-0.6,2-1.5,3.8-2.7,5.5l7.6,7.8L993.6,1065.4L993.6,1065.4z M1046.7,1054.6c-0.9,2.2-2.1,4.1-3.7,5.7c-1.6,1.6-3.5,2.8-5.8,3.7
		c-2.2,0.9-4.8,1.3-7.5,1.3H1016v-36.2h13.8c2.8,0,5.2,0.4,7.5,1.3c2.3,0.9,4.2,2.1,5.8,3.7s2.8,3.5,3.7,5.7
		c0.9,2.2,1.3,4.7,1.3,7.3C1048.1,1050,1047.6,1052.4,1046.7,1054.6z M1058.2,1056.8c0.4,1,0.8,1.8,1.4,2.4c0.6,0.6,1.3,1.1,2.1,1.4
		c0.8,0.3,1.7,0.5,2.7,0.5s1.9-0.1,2.6-0.3c0.7-0.2,1.4-0.5,1.9-0.8s1-0.5,1.4-0.8c0.4-0.3,0.8-0.4,1.2-0.4c0.5,0,0.9,0.2,1.2,0.6
		l1.8,2.2c-0.7,0.8-1.4,1.5-2.3,2c-0.8,0.5-1.7,1-2.7,1.3c-1,0.3-1.9,0.6-2.8,0.7c-1,0.1-1.9,0.2-2.8,0.2c-1.8,0-3.4-0.3-5-0.9
		c-1.5-0.6-2.9-1.5-4-2.6c-1.1-1.2-2-2.6-2.7-4.3c-0.7-1.7-1-3.7-1-5.9c0-1.8,0.3-3.4,0.8-4.9c0.6-1.5,1.4-2.9,2.4-4
		c1.1-1.1,2.3-2,3.9-2.7c1.6-0.7,3.2-1,5.2-1c1.6,0,3.1,0.3,4.5,0.8c1.4,0.5,2.5,1.3,3.5,2.3s1.8,2.2,2.3,3.7s0.8,3.1,0.8,4.9
		c0,0.9-0.1,1.6-0.3,1.9c-0.2,0.3-0.6,0.5-1.2,0.5h-15.9C1057.6,1054.7,1057.8,1055.8,1058.2,1056.8z M1091.7,1065.4h-5.6
		l-10.2-25.7h5.1c0.5,0,0.9,0.1,1.2,0.3c0.3,0.2,0.5,0.5,0.6,0.8l4.9,13.7c0.3,0.8,0.5,1.6,0.7,2.3c0.2,0.7,0.4,1.5,0.5,2.3
		c0.2-0.8,0.3-1.5,0.6-2.3c0.3-0.8,0.4-1.6,0.7-2.3l5.1-13.7c0.1-0.3,0.3-0.6,0.6-0.8c0.3-0.2,0.7-0.3,1.1-0.3h4.9L1091.7,1065.4z
		 M1109.8,1056.8c0.4,1,0.8,1.8,1.4,2.4c0.6,0.6,1.3,1.1,2.1,1.4c0.8,0.3,1.7,0.5,2.7,0.5s1.9-0.1,2.6-0.3c0.7-0.2,1.4-0.5,1.9-0.8
		s1-0.5,1.4-0.8c0.4-0.3,0.8-0.4,1.2-0.4c0.5,0,0.9,0.2,1.2,0.6l1.8,2.2c-0.7,0.8-1.4,1.5-2.3,2c-0.8,0.5-1.7,1-2.7,1.3
		c-1,0.3-1.9,0.6-2.8,0.7c-1,0.1-1.9,0.2-2.8,0.2c-1.8,0-3.4-0.3-5-0.9c-1.5-0.6-2.9-1.5-4-2.6c-1.1-1.2-2-2.6-2.7-4.3
		c-0.7-1.7-1-3.7-1-5.9c0-1.8,0.3-3.4,0.8-4.9c0.6-1.5,1.4-2.9,2.4-4c1.1-1.1,2.3-2,3.9-2.7s3.2-1,5.2-1c1.6,0,3.1,0.3,4.5,0.8
		s2.5,1.3,3.5,2.3s1.8,2.2,2.3,3.7s0.8,3.1,0.8,4.9c0,0.9-0.1,1.6-0.3,1.9c-0.2,0.3-0.6,0.5-1.2,0.5h-15.9
		C1109.2,1054.7,1109.4,1055.8,1109.8,1056.8z M1137.3,1065.4h-6.2v-37.2h6.2V1065.4z M1166.6,1058c-0.6,1.6-1.5,3-2.6,4.2
		c-1.1,1.2-2.4,2-4,2.7c-1.6,0.6-3.3,0.9-5.2,0.9c-1.9,0-3.7-0.3-5.2-0.9s-2.9-1.5-4-2.7c-1.1-1.1-2-2.5-2.6-4.2
		c-0.6-1.6-0.9-3.5-0.9-5.5s0.3-3.8,0.9-5.5c0.6-1.6,1.5-3,2.6-4.2c1.1-1.2,2.4-2,4-2.6c1.6-0.6,3.3-0.9,5.2-0.9
		c1.9,0,3.6,0.3,5.2,0.9c1.6,0.6,2.9,1.5,4,2.6c1.1,1.1,2,2.5,2.6,4.2c0.6,1.6,0.9,3.5,0.9,5.5
		C1167.5,1054.6,1167.2,1056.4,1166.6,1058z M1195,1057.7c-0.5,1.6-1.3,3.1-2.2,4.2c-1,1.2-2.1,2.1-3.5,2.8c-1.4,0.7-2.9,1-4.6,1
		c-1.4,0-2.7-0.2-3.7-0.7s-1.9-1.1-2.7-1.8v10.5h-6.2v-34h3.8c0.8,0,1.3,0.4,1.6,1.1l0.5,2.4c1.1-1.2,2.2-2.1,3.6-2.9
		c1.3-0.7,2.9-1.1,4.7-1.1c1.4,0,2.7,0.3,3.8,0.9c1.2,0.6,2.2,1.4,3,2.5c0.8,1.1,1.5,2.5,1.9,4.1c0.5,1.6,0.7,3.5,0.7,5.6
		C1195.8,1054.3,1195.5,1056.1,1195,1057.7z M1206.1,1056.8c0.4,1,0.8,1.8,1.4,2.4c0.6,0.6,1.3,1.1,2.1,1.4c0.8,0.3,1.7,0.5,2.7,0.5
		s1.9-0.1,2.6-0.3c0.7-0.2,1.4-0.5,1.9-0.8s1-0.5,1.4-0.8c0.4-0.3,0.8-0.4,1.2-0.4c0.5,0,0.9,0.2,1.2,0.6l1.8,2.2
		c-0.7,0.8-1.4,1.5-2.3,2c-0.8,0.5-1.7,1-2.7,1.3c-1,0.3-1.9,0.6-2.8,0.7c-1,0.1-1.9,0.2-2.8,0.2c-1.8,0-3.4-0.3-5-0.9
		c-1.5-0.6-2.9-1.5-4-2.6c-1.1-1.2-2-2.6-2.7-4.3c-0.7-1.7-1-3.7-1-5.9c0-1.8,0.3-3.4,0.8-4.9c0.6-1.5,1.4-2.9,2.4-4
		c1.1-1.1,2.3-2,3.9-2.7c1.6-0.7,3.2-1,5.2-1c1.6,0,3.1,0.3,4.5,0.8s2.5,1.3,3.5,2.3s1.8,2.2,2.3,3.7s0.8,3.1,0.8,4.9
		c0,0.9-0.1,1.6-0.3,1.9c-0.2,0.3-0.6,0.5-1.2,0.5h-15.9C1205.4,1054.7,1205.7,1055.8,1206.1,1056.8z M1242.3,1044.7
		c-0.1,0.3-0.2,0.5-0.4,0.6c-0.2,0.1-0.4,0.2-0.6,0.2c-0.2,0-0.6,0-1.1-0.1s-1-0.1-1.4-0.1c-0.7,0-1.3,0.1-1.8,0.3
		c-0.5,0.2-1,0.5-1.4,0.9s-0.8,0.8-1.1,1.4s-0.6,1.1-0.9,1.8v15.8h-6.2v-25.7h3.6c0.6,0,1.1,0.1,1.3,0.3c0.2,0.2,0.4,0.6,0.5,1.2
		l0.4,2.9c0.8-1.5,1.8-2.7,2.8-3.6c1.1-0.9,2.4-1.3,3.9-1.3c1.2,0,2.1,0.3,2.8,0.8L1242.3,1044.7z"/>
	<path class="st0" d="M779.7,1038c-1-1.1-2.2-1.9-3.6-2.5c-1.4-0.6-3-0.9-4.8-0.9h-7v25.4h7c1.8,0,3.4-0.3,4.8-0.9
		c1.4-0.6,2.6-1.4,3.6-2.5s1.8-2.4,2.3-4s0.8-3.4,0.8-5.3c0-1.9-0.3-3.8-0.8-5.3C781.4,1040.4,780.7,1039.1,779.7,1038z"/>
</g>
</svg>
