<?xml version="1.0" encoding="utf-8"?>
<!-- Generator: Adobe Illustrator 16.0.0, SVG Export Plug-In . SVG Version: 6.00 Build 0)  -->
<!DOCTYPE svg PUBLIC "-//W3C//DTD SVG 1.1//EN" "http://www.w3.org/Graphics/SVG/1.1/DTD/svg11.dtd">
<svg version="1.1" id="Layer_1" xmlns="http://www.w3.org/2000/svg" xmlns:xlink="http://www.w3.org/1999/xlink" x="0px" y="0px"
	 width="500px" height="500px" viewBox="0 0 500 500" enable-background="new 0 0 500 500" xml:space="preserve">
<path fill="#007BB6" d="M103,397V191.689h62.72V397H103 M167.68,134.85c0.491,17.641-12.739,31.851-33.81,31.851
	c-19.601,0-32.34-14.21-32.34-31.851c0-18.129,13.229-31.85,33.319-31.85C154.94,103,167.68,116.721,167.68,134.85 M332.32,397
	V283.32c0-26.46-8.82-44.592-31.852-44.592c-17.148,0-27.438,12.25-32.341,24.011c-1.469,4.41-1.959,10.291-1.959,16.171V397h-62.72
	V257.351c0-25.479-0.979-47.041-1.47-65.66h54.392l2.938,28.91h0.979c8.332-13.72,28.911-33.319,62.722-33.319
	c41.159,0,72.521,27.93,72.521,88.689V397H332.32 M495,48.12C495,24.6,475.399,5,451.879,5H48.12C24.6,5,5,24.6,5,48.12v403.759
	C5,475.399,24.6,495,48.12,495h403.759C475.399,495,495,475.399,495,451.879V48.12"/>
</svg>
