<?xml version="1.0" encoding="utf-8"?>
<!-- Generator: Adobe Illustrator 16.0.0, SVG Export Plug-In . SVG Version: 6.00 Build 0)  -->
<!DOCTYPE svg PUBLIC "-//W3C//DTD SVG 1.1//EN" "http://www.w3.org/Graphics/SVG/1.1/DTD/svg11.dtd">
<svg version="1.1" id="Layer_1" xmlns="http://www.w3.org/2000/svg" xmlns:xlink="http://www.w3.org/1999/xlink" x="0px" y="0px"
	 width="500px" height="500px" viewBox="-122 -125 500 500" enable-background="new -122 -125 500 500" xml:space="preserve">
<g>
	<path fill="#161614" d="M128.002-113.952C-7.291-113.952-117-4.264-117,131.051c0,108.247,70.201,200.085,167.548,232.481
		c12.244,2.27,16.74-5.315,16.74-11.787c0-5.841-0.227-25.141-0.333-45.612c-68.16,14.819-82.543-28.909-82.543-28.909
		c-11.144-28.318-27.203-35.848-27.203-35.848c-22.229-15.206,1.676-14.894,1.676-14.894c24.603,1.728,37.557,25.247,37.557,25.247
		c21.851,37.455,57.314,26.627,71.295,20.367c2.199-15.834,8.549-26.642,15.556-32.762
		c-54.418-6.194-111.624-27.202-111.624-121.082c0-26.748,9.571-48.604,25.244-65.761c-2.544-6.171-10.93-31.089,2.374-64.837
		c0,0,20.574-6.585,67.393,25.113c19.543-5.428,40.502-8.15,61.323-8.244c20.821,0.093,41.797,2.816,61.375,8.244
		c46.764-31.699,67.311-25.113,67.311-25.113c13.334,33.748,4.945,58.666,2.399,64.837c15.709,17.157,25.216,39.013,25.216,65.761
		c0,94.103-57.313,114.822-111.872,120.888c8.789,7.604,16.619,22.513,16.619,45.371c0,32.78-0.284,59.166-0.284,67.233
		c0,6.52,4.41,14.161,16.829,11.754C302.89,331.068,373,239.263,373,131.051C373-4.264,263.308-113.952,128.002-113.952z
		 M-25.239,235.059c-0.539,1.219-2.454,1.583-4.199,0.747c-1.777-0.8-2.775-2.459-2.199-3.68c0.528-1.255,2.447-1.603,4.22-0.763
		C-25.636,232.161-24.622,233.838-25.239,235.059z M-13.188,245.812c-1.168,1.085-3.452,0.582-5.003-1.131
		c-1.602-1.708-1.903-3.992-0.718-5.091c1.205-1.085,3.421-0.576,5.027,1.131C-12.279,242.449-11.966,244.717-13.188,245.812z
		 M-4.92,259.571c-1.501,1.043-3.955,0.063-5.473-2.114c-1.501-2.178-1.501-4.791,0.033-5.838c1.521-1.046,3.939-0.106,5.477,2.057
		C-3.386,255.891-3.386,258.504-4.92,259.571z M9.063,275.504c-1.343,1.48-4.203,1.084-6.296-0.937
		c-2.142-1.976-2.738-4.779-1.392-6.26c1.359-1.484,4.236-1.067,6.345,0.938C9.846,271.216,10.495,274.041,9.063,275.504z
		 M27.134,280.884c-0.593,1.92-3.348,2.793-6.123,1.978c-2.771-0.841-4.584-3.088-4.024-5.028c0.576-1.931,3.343-2.841,6.138-1.966
		C25.892,276.7,27.71,278.933,27.134,280.884z M47.699,283.166c0.069,2.021-2.284,3.695-5.197,3.732
		c-2.929,0.064-5.298-1.569-5.331-3.559c0-2.041,2.3-3.699,5.23-3.748C45.314,279.534,47.699,281.156,47.699,283.166z
		 M67.902,282.391c0.349,1.974-1.676,3.996-4.568,4.538c-2.844,0.518-5.477-0.699-5.838-2.654c-0.353-2.021,1.708-4.045,4.549-4.568
		C64.94,279.201,67.533,280.387,67.902,282.391z"/>
</g>
</svg>
