<svg width="1000" height="241" viewBox="0 0 1000 241" fill="none" xmlns="http://www.w3.org/2000/svg">
<g clip-path="url(#clip0_3902_18038)">
<path d="M593.62 95.0936C609.13 95.0936 623.818 104.569 626.917 125.042H557.843C560.734 107.077 574.182 95.0936 593.62 95.0936ZM624.71 155.331C619.434 163.543 609.238 169.86 595.277 169.86C576.042 169.86 561.354 159.33 557.843 140.739H644.502C644.92 138.075 645.132 135.382 645.135 132.685C645.135 103.773 624.893 78.1582 593.633 78.1582C561.373 78.1582 539.449 101.91 539.449 132.483C539.449 163.436 561.588 186.808 594.873 186.808C615.557 186.808 631.276 177.509 640.372 163.436L624.71 155.331Z" fill="#006BFF"/>
<path d="M530.935 33.3398H512.945V184.116H530.935V33.3398Z" fill="#006BFF"/>
<path d="M745.235 120.708V184.11H727.239V121.737C727.239 104.802 717.524 95.3012 701.596 95.3012C685.049 95.3012 671.607 105.01 671.607 129.381V184.11H653.611V80.8546H671.607V95.7244C679.261 83.5392 690.634 78.1699 705.132 78.1699C729.327 78.1699 745.254 94.2779 745.254 120.72" fill="#006BFF"/>
<path d="M844.45 132.476C844.45 111.41 828.523 95.5039 807.636 95.5039C786.952 95.5039 771.031 111.41 771.031 132.476C771.031 153.543 786.952 169.449 807.636 169.449C828.51 169.449 844.45 153.543 844.45 132.476ZM862.44 33.3398V184.116H844.45V166.347C836.177 178.981 822.944 186.801 805.359 186.801C776.61 186.801 753.035 163.043 753.035 132.476C753.035 101.909 776.61 78.1515 805.359 78.1515C822.937 78.1515 836.177 85.997 844.45 98.5991V33.3398H862.44Z" fill="#006BFF"/>
<path d="M894.94 33.3398H876.951V184.116H894.94V33.3398Z" fill="#006BFF"/>
<path d="M480.875 132.477C480.875 111.41 464.954 95.5047 444.061 95.5047C423.383 95.5047 407.455 111.41 407.455 132.477C407.455 153.544 423.383 169.45 444.061 169.45C464.935 169.45 480.875 153.544 480.875 132.477ZM498.871 80.8559V184.111H480.875V166.348C472.601 178.982 459.368 186.802 441.79 186.802C413.041 186.802 389.459 163.044 389.459 132.477C389.459 101.91 413.041 78.1523 441.79 78.1523C459.368 78.1523 472.601 85.9979 480.875 98.5999V80.8559H498.871Z" fill="#006BFF"/>
<path d="M362.772 164.237C353.562 167.631 343.619 168.547 333.943 166.894C324.266 165.241 315.194 161.076 307.637 154.817C300.08 148.559 294.304 140.426 290.887 131.235C287.47 122.043 286.533 112.117 288.17 102.45C289.806 92.7826 293.959 83.7152 300.212 76.1564C306.464 68.5977 314.597 62.8133 323.794 59.3832C332.991 55.9531 342.929 54.9979 352.613 56.6134C362.296 58.2288 371.384 62.3582 378.965 68.5873C382.127 71.1921 384.987 74.1414 387.492 77.3804L403.059 66.0101C393.99 54.1703 381.605 45.286 367.474 40.4832C353.343 35.6803 338.103 35.1752 323.684 39.0318C309.266 42.8884 296.318 50.9331 286.483 62.1463C276.648 73.3594 270.367 87.2362 268.438 102.018C266.509 116.799 269.018 131.82 275.647 145.176C282.275 158.532 292.725 169.622 305.673 177.04C318.62 184.459 333.481 187.871 348.372 186.846C363.264 185.82 377.515 180.403 389.32 171.28L378.959 154.92C374.119 158.901 368.648 162.05 362.772 164.237Z" fill="#006BFF"/>
<path d="M981.789 80.8555V139.463C981.789 158.414 970.751 170.416 953.9 170.416C937.049 170.416 924.847 158.414 924.847 139.463V80.8555H906.642V137.707C906.642 167.497 925.233 186.839 953.9 186.839C978.696 186.839 982.567 171.174 982.567 170.782V191.868C982.567 212.757 973.465 224.557 954.482 224.557C947.701 224.591 941.139 222.161 936.019 217.722C930.899 213.283 927.569 207.136 926.65 200.427L910.374 206.112C912.704 216.051 918.334 224.91 926.35 231.245C934.365 237.581 944.292 241.019 954.514 241C983.952 241 1000.06 221.651 1000.06 191.868V80.8555H981.789Z" fill="#006BFF"/>
<path d="M146.485 150.011C139.571 156.138 130.937 163.763 115.281 163.763H105.92C94.5907 163.763 84.2865 159.651 76.911 152.197C69.7063 144.913 65.7403 134.946 65.7403 124.125V111.333C65.7403 100.512 69.7063 90.5444 76.911 83.2611C84.2865 75.8073 94.5907 71.7013 105.92 71.7013H115.281C130.956 71.7013 139.571 79.3194 146.485 85.4468C153.664 91.7636 159.857 97.2845 176.373 97.2845C178.892 97.2839 181.407 97.0832 183.894 96.6844L183.837 96.5391C182.847 94.0858 181.687 91.7049 180.364 89.4137L169.326 70.3179C164.349 61.7095 157.19 54.5612 148.569 49.5914C139.948 44.6216 130.169 42.0054 120.215 42.0059H98.133C88.1789 42.0054 78.4001 44.6216 69.7793 49.5914C61.1586 54.5612 53.9996 61.7095 49.022 70.3179L37.9841 89.4137C33.0082 98.0231 30.3886 107.788 30.3886 117.729C30.3886 127.669 33.0082 137.435 37.9841 146.044L49.022 165.14C53.9996 173.748 61.1586 180.897 69.7793 185.867C78.4001 190.836 88.1789 193.452 98.133 193.452H120.215C130.169 193.452 139.948 190.836 148.569 185.867C157.19 180.897 164.349 173.748 169.326 165.14L180.364 146.076C181.687 143.785 182.847 141.404 183.837 138.95L183.894 138.811C181.408 138.399 178.893 138.188 176.373 138.18C159.857 138.18 153.664 143.669 146.485 150.017" fill="#006BFF"/>
<path d="M115.281 83.291H105.92C88.6764 83.291 77.3475 95.5899 77.3475 111.331V124.123C77.3475 139.865 88.6764 152.163 105.92 152.163H115.281C140.406 152.163 138.433 126.58 176.373 126.58C179.967 126.576 183.555 126.906 187.088 127.566C188.239 121.057 188.239 114.397 187.088 107.889C183.554 108.545 179.967 108.875 176.373 108.874C138.42 108.874 140.406 83.291 115.281 83.291Z" fill="#006BFF"/>
<path d="M208.886 136.915C202.425 132.19 194.974 128.991 187.094 127.56C187.094 127.63 187.094 127.687 187.094 127.75C186.416 131.521 185.356 135.215 183.932 138.773C190.441 139.779 196.616 142.319 201.947 146.182C201.947 146.233 201.915 146.296 201.896 146.353C195.035 168.539 180.433 187.531 160.742 199.88C141.051 212.229 117.578 217.114 94.5869 213.65C71.5956 210.185 50.6114 198.6 35.4462 180.999C20.281 163.398 11.9408 140.948 11.9408 117.728C11.9408 94.5083 20.281 72.0586 35.4462 54.4574C50.6114 36.8561 71.5956 25.2709 94.5869 21.8063C117.578 18.3417 141.051 23.2276 160.742 35.5763C180.433 47.925 195.035 66.9174 201.896 89.1033C201.896 89.1602 201.928 89.2234 201.947 89.2739C196.617 93.1375 190.441 95.6755 183.932 96.6772C185.355 100.24 186.414 103.937 187.094 107.713C187.091 107.772 187.091 107.831 187.094 107.89C194.973 106.461 202.424 103.264 208.886 98.5407C215.097 93.9483 213.895 88.7622 212.953 85.6922C205.273 60.8172 188.912 39.5191 166.842 25.6679C144.773 11.8167 118.46 6.33177 92.6849 10.2097C66.9097 14.0877 43.383 27.0713 26.3798 46.8011C9.37661 66.5309 0.0253906 91.6976 0.0253906 117.728C0.0253906 143.759 9.37661 168.925 26.3798 188.655C43.383 208.385 66.9097 221.368 92.6849 225.246C118.46 229.124 144.773 223.639 166.842 209.788C188.912 195.937 205.273 174.639 212.953 149.764C213.895 146.694 215.097 141.508 208.886 136.915Z" fill="#006BFF"/>
<path d="M183.894 96.6766C181.408 97.089 178.893 97.3002 176.373 97.3083C159.857 97.3083 153.664 91.8189 146.491 85.4705C139.571 79.3432 130.956 71.7188 115.281 71.7188H105.92C94.5844 71.7188 84.2865 75.831 76.911 83.2849C69.7063 90.5682 65.7402 100.536 65.7402 111.357V124.149C65.7402 134.969 69.7063 144.937 76.911 152.221C84.2865 159.674 94.5844 163.78 105.92 163.78H115.281C130.956 163.78 139.571 156.162 146.491 150.035C153.664 143.718 159.857 138.197 176.373 138.197C178.892 138.198 181.407 138.398 183.894 138.797C185.321 135.24 186.381 131.547 187.056 127.774C187.06 127.711 187.06 127.648 187.056 127.585C183.522 126.931 179.935 126.603 176.341 126.606C138.388 126.606 140.374 152.195 115.25 152.195H105.888C88.6448 152.195 77.3158 139.89 77.3158 124.149V111.332C77.3158 95.5901 88.6448 83.2912 105.888 83.2912H115.25C140.374 83.2912 138.401 108.868 176.341 108.868C179.936 108.874 183.523 108.546 187.056 107.889C187.056 107.832 187.056 107.775 187.056 107.712C186.376 103.937 185.317 100.24 183.894 96.6766Z" fill="#0AE8F0"/>
<path d="M183.894 96.6766C181.408 97.089 178.893 97.3002 176.373 97.3083C159.857 97.3083 153.664 91.8189 146.491 85.4705C139.571 79.3432 130.956 71.7188 115.281 71.7188H105.92C94.5844 71.7188 84.2865 75.831 76.911 83.2849C69.7063 90.5682 65.7402 100.536 65.7402 111.357V124.149C65.7402 134.969 69.7063 144.937 76.911 152.221C84.2865 159.674 94.5844 163.78 105.92 163.78H115.281C130.956 163.78 139.571 156.162 146.491 150.035C153.664 143.718 159.857 138.197 176.373 138.197C178.892 138.198 181.407 138.398 183.894 138.797C185.321 135.24 186.381 131.547 187.056 127.774C187.06 127.711 187.06 127.648 187.056 127.585C183.522 126.931 179.935 126.603 176.341 126.606C138.388 126.606 140.374 152.195 115.25 152.195H105.888C88.6448 152.195 77.3158 139.89 77.3158 124.149V111.332C77.3158 95.5901 88.6448 83.2912 105.888 83.2912H115.25C140.374 83.2912 138.401 108.868 176.341 108.868C179.936 108.874 183.523 108.546 187.056 107.889C187.056 107.832 187.056 107.775 187.056 107.712C186.376 103.937 185.317 100.24 183.894 96.6766Z" fill="#0AE8F0"/>
</g>
<defs>
<clipPath id="clip0_3902_18038">
<rect width="1000" height="241" fill="white"/>
</clipPath>
</defs>
</svg>
