<svg width="618" height="138" viewBox="0 0 618 138" fill="none" xmlns="http://www.w3.org/2000/svg">
<path d="M27.5 44.9L20 38.3L27.8 30.6L34.5 38C35.9 37 37.3 36 38.8 35.2L34.4 26.3L44.6 22.1L47.9 31.4C49.6 31 51.2 30.6 52.9 30.4L52.3 20.5H63.4L62.8 30.4C64.5 30.6 66.2 30.9 67.8 31.4L71.1 22.1L81.3 26.3L77.1 35.2C78.6 36 80 37 81.4 38L88.1 30.6L95.9 38.3L88.4 44.9C89.4 46.2 90.4 47.6 91.3 49.1L100.3 44.8L104.5 54.9L95 58.2C95.4 59.8 95.8 61.5 96 63.1L106 62.6V73.5L96 73C95.8 74.7 95.4 76.3 95 77.9L104.5 81.2L100.3 91.3L91.3 87C90.4 88.5 89.5 89.9 88.4 91.2L95.9 97.8L88.1 105.5L81.4 98.1C80 99.1 78.6 100.1 77.1 100.9L81.5 109.8L71.3 114L68 104.7C66.3 105.1 64.7 105.5 63 105.7L63.6 115.6H52.5L53.1 105.7C51.4 105.5 49.7 105.2 48.1 104.7L44.8 114L34.6 109.8L39 100.9C37.5 100.1 36.1 99.1 34.7 98.1L28 105.5L20.2 97.8L27.7 91.2C26.7 89.9 25.7 88.5 24.8 87L15.8 91.3L11.6 81.2L21.1 77.9C20.7 76.3 20.3 74.6 20.1 73L10.1 73.5V62.6L20.1 63.1C20.3 61.4 20.6 59.8 21.1 58.2L11.6 54.9L15.8 44.8L24.9 49.1C25.5 47.6 26.5 46.2 27.5 44.9ZM34.7 68C34.6 72.6 35.9 77.2 38.5 81.1C41 85 44.6 88 48.9 89.9C53.2 91.7 57.9 92.2 62.4 91.4C67 90.5 71.1 88.3 74.5 85.1C77.8 81.8 80.1 77.7 81 73.1C81.9 68.6 81.5 63.8 79.7 59.6C77.9 55.3 75 51.6 71.1 49.1C67.3 46.5 62.7 45.1 58.1 45.1C55.1 45.1 52 45.7 49.2 46.8C46.4 47.9 43.8 49.6 41.6 51.8C39.4 53.9 37.7 56.5 36.5 59.3C35.3 61.9 34.7 64.9 34.7 68ZM567.5 43.4L604.6 80.1V45.3H609.9V92.2L572.8 55.6V90.2H567.5V43.4ZM502.8 67.7C502.8 77.8 511.5 86.3 522.3 86.3C533.1 86.3 541.8 77.8 541.8 67.7C541.8 57.6 533.2 49.1 522.3 49.1C511.4 49.1 502.8 57.5 502.8 67.7ZM547 67.8C547 80.7 535.8 91 522.2 91C508.6 91 497.4 80.8 497.4 67.8C497.4 54.9 508.6 44.5 522.2 44.5C535.8 44.5 547 54.9 547 67.8ZM475.4 54C473.5 50.9 471.2 49.1 467.2 49.1C463 49.1 459.3 52 459.3 56.1C459.3 60 463.5 61.8 466.7 63.1L469.9 64.4C476.1 67 481.3 69.9 481.3 77C481.3 84.9 474.6 90.9 466.4 90.9C458.8 90.9 453.1 86.3 451.6 79.3L456.8 77.9C457.1 80.2 458.2 82.4 460 83.9C461.8 85.4 464 86.3 466.4 86.3C471.5 86.3 476.2 82.6 476.2 77.6C476.2 72.5 471.8 70.6 467.4 68.7L464.5 67.5C459 65.1 454.2 62.4 454.2 56C454.2 49 460.4 44.6 467.5 44.6C470 44.5 472.4 45.2 474.6 46.4C476.8 47.6 478.6 49.4 479.8 51.6L475.4 54ZM413.9 66.1H415.5C421.5 66.1 427.5 65 427.5 58.1C427.5 50.7 421.8 50 415.4 50H413.8L413.9 66.1ZM413.9 90.2H408.6V45.3H415.5C424.5 45.3 432.9 47.6 432.9 57.7C432.9 64.6 428.3 69.5 420.9 70.1L436 90.2H429.5L415.2 70.5H413.9V90.2ZM363.5 45.3H388V49.9H368.7V63.3H387.5V67.9H368.7V85.5H388V90.1H363.4V45.3H363.5ZM325.2 65.9H328.8C334.7 65.9 339.6 64.2 339.6 57.8C339.6 50.5 333.4 49.9 327.2 49.9H325.3L325.2 65.9ZM325.2 90.2H319.9V45.3H327.7C331.8 45.3 336.1 45.4 339.5 47.7C341.2 48.8 342.5 50.4 343.5 52.1C344.4 53.9 344.9 55.9 344.9 57.9C344.9 59.7 344.5 61.6 343.7 63.2C342.9 64.9 341.8 66.3 340.3 67.5C337.1 70 333 70.5 329 70.5H325.2V90.2ZM281.7 52.9V62.8H295.9V70.4H281.7V82.6H296.4V90.2H272.8V45.3H296.4V52.9H281.7ZM235.8 72L246.7 45.3H256.3L236 92.7L215.9 45.3H225.5L235.8 72ZM199.4 90.2H190.5V45.3H199.4V90.2ZM160.9 82.6H173.5V90.2H152V45.3H160.9V82.6Z" fill="#FE5E00"/>
</svg>
