<?xml version="1.0" encoding="utf-8"?>
<!-- Generator: Adobe Illustrator 22.1.0, SVG Export Plug-In . SVG Version: 6.00 Build 0)  -->
<svg version="1.1" id="Layer_1" xmlns="http://www.w3.org/2000/svg" xmlns:xlink="http://www.w3.org/1999/xlink" x="0px" y="0px"
	 viewBox="0 0 500 500" style="enable-background:new 0 0 500 500;" xml:space="preserve">
<style type="text/css">
	.st0{fill:#222222;}
</style>
<g>
	<g>
		<path class="st0" d="M5,96.9c8.3,0.2,16.6,0.5,24.8,0.5c38.6,0.1,77.2-0.4,115.8,0.3c14.2,0.2,28.8,1.7,42.6,5.1
			c37.6,9.2,58,38.1,56.7,76.7c-0.8,24.4-9.6,43.9-31.7,56.1c-1.1,0.6-2,1.5-3,2.4c-0.2,0.2-0.1,0.6-0.1,1c6.4,3.9,13.2,7.3,19.1,12
			c17.7,14.1,24.2,33.5,25.5,55.5c2.1,35.9-18.9,71.7-51,86c-12.7,5.7-26.3,7.9-39.9,8.8c-14.9,1-29.9,1.3-44.9,1.4
			c-34.5,0.2-68.9,0-103.4,0.1c-3.5,0-7,0.3-10.5,0.5C5,301,5,199,5,96.9z M75.9,350.1c27.2-0.7,53.6-0.5,79.9-2.3
			c22.7-1.6,35.3-18.1,34.8-42.2c-0.4-21.2-13.7-35.2-36.5-36.2c-24.8-1.1-49.7-0.7-74.6-1c-1.1,0-2.3,0.6-3.7,1
			C75.9,295.9,75.9,322,75.9,350.1z M76,217.4c24.7,0,48.3,0.1,71.9-0.1c3.1,0,6.3-0.9,9.4-1.5c21-4.7,29.9-18,26.4-39.2
			c-2.2-13-8.4-19.6-21.3-22.5c-28.1-6.2-56.5-2.9-84.8-3.3c-0.5,0-1,0.7-1.6,1.1C76,173.4,76,195,76,217.4z"/>
		<path class="st0" d="M495,299.8c-52.6,0-105.1,0-157.6,0c-2,26.2,13.1,43.6,29.4,50.1c26.2,10.4,48.9,3.7,67.3-20.3
			c18.7,0,37.6,0,57.1,0c-0.5,11.7-5.9,20.7-12.1,29.1c-18.3,24.8-43.2,37.9-73.7,40.8c-23.2,2.2-45.7-0.2-67.2-9.9
			c-31.1-13.9-50.7-36.7-56.6-70.5c-4.8-27.1-4.9-54.2,3.8-80.4c13.4-40.7,42.7-63.1,84.7-68.7c18.8-2.5,37.6-1.3,55.8,4.5
			c35.8,11.4,55.9,37,65.3,72.4C494.3,259,495,294.2,495,299.8z M434.7,261.5c-0.3-27.1-20.4-45.7-48.4-45.7
			c-24.6,0.1-45.6,15.1-47.6,45.7C370.7,261.5,402.7,261.5,434.7,261.5z"/>
		<path class="st0" d="M325.1,140c0-9.8,0-19.2,0-29.2c40.6,0,80.8,0,121.7,0c0,9.6,0,19,0,29.2C406.7,140,366.4,140,325.1,140z"/>
	</g>
</g>
</svg>
