<?xml version="1.0" encoding="utf-8"?>
<!-- Generator: Adobe Illustrator 22.1.0, SVG Export Plug-In . SVG Version: 6.00 Build 0)  -->
<svg version="1.1" id="Layer_1" xmlns="http://www.w3.org/2000/svg" xmlns:xlink="http://www.w3.org/1999/xlink" x="0px" y="0px"
	 viewBox="0 0 500 500" style="enable-background:new 0 0 500 500;" xml:space="preserve">
<style type="text/css">
	.st0{fill:#222222;}
</style>
<g>
	<g>
		<path class="st0" d="M250,11C114.7,11,5,120.7,5,256.1c0,108.2,70.2,200.1,167.5,232.5c12.2,2.3,16.7-5.3,16.7-11.8
			c0-5.8-0.2-25.1-0.3-45.6c-68.2,14.8-82.5-28.9-82.5-28.9c-11.1-28.3-27.2-35.8-27.2-35.8c-22.2-15.2,1.7-14.9,1.7-14.9
			c24.6,1.7,37.6,25.2,37.6,25.2c21.9,37.5,57.3,26.6,71.3,20.4c2.2-15.8,8.6-26.6,15.6-32.8c-54.4-6.2-111.6-27.2-111.6-121.1
			c0-26.7,9.6-48.6,25.2-65.8c-2.5-6.2-10.9-31.1,2.4-64.8c0,0,20.6-6.6,67.4,25.1c19.5-5.4,40.5-8.1,61.3-8.2
			c20.8,0.1,41.8,2.8,61.4,8.2c46.8-31.7,67.3-25.1,67.3-25.1c13.3,33.7,4.9,58.7,2.4,64.8c15.7,17.2,25.2,39,25.2,65.8
			c0,94.1-57.3,114.8-111.9,120.9c8.8,7.6,16.6,22.5,16.6,45.4c0,32.8-0.3,59.2-0.3,67.2c0,6.5,4.4,14.2,16.8,11.8
			C424.9,456.1,495,364.3,495,256.1C495,120.7,385.3,11,250,11z M96.8,360.1c-0.5,1.2-2.5,1.6-4.2,0.7c-1.8-0.8-2.8-2.5-2.2-3.7
			c0.5-1.3,2.4-1.6,4.2-0.8C96.4,357.2,97.4,358.8,96.8,360.1z M108.8,370.8c-1.2,1.1-3.5,0.6-5-1.1c-1.6-1.7-1.9-4-0.7-5.1
			c1.2-1.1,3.4-0.6,5,1.1C109.7,367.4,110,369.7,108.8,370.8z M117.1,384.6c-1.5,1-4,0.1-5.5-2.1c-1.5-2.2-1.5-4.8,0-5.8
			c1.5-1,3.9-0.1,5.5,2.1C118.6,380.9,118.6,383.5,117.1,384.6z M131.1,400.5c-1.3,1.5-4.2,1.1-6.3-0.9c-2.1-2-2.7-4.8-1.4-6.3
			c1.4-1.5,4.2-1.1,6.3,0.9C131.8,396.2,132.5,399,131.1,400.5z M149.1,405.9c-0.6,1.9-3.3,2.8-6.1,2c-2.8-0.8-4.6-3.1-4-5
			c0.6-1.9,3.3-2.8,6.1-2C147.9,401.7,149.7,403.9,149.1,405.9z M169.7,408.2c0.1,2-2.3,3.7-5.2,3.7c-2.9,0.1-5.3-1.6-5.3-3.6
			c0-2,2.3-3.7,5.2-3.7C167.3,404.5,169.7,406.2,169.7,408.2z M189.9,407.4c0.3,2-1.7,4-4.6,4.5c-2.8,0.5-5.5-0.7-5.8-2.7
			c-0.4-2,1.7-4,4.5-4.6C186.9,404.2,189.5,405.4,189.9,407.4z"/>
	</g>
</g>
</svg>
