<?xml version="1.0" encoding="utf-8"?>
<!-- Generator: Adobe Illustrator 22.1.0, SVG Export Plug-In . SVG Version: 6.00 Build 0)  -->
<svg version="1.1" id="Layer_1" xmlns="http://www.w3.org/2000/svg" xmlns:xlink="http://www.w3.org/1999/xlink" x="0px" y="0px"
	 viewBox="0 0 500 500" style="enable-background:new 0 0 500 500;" xml:space="preserve">
<style type="text/css">
	.st0{fill:#222222;}
</style>
<path class="st0" d="M103,397V191.7h62.7V397H103 M167.7,134.9c0.5,17.6-12.7,31.9-33.8,31.9c-19.6,0-32.3-14.2-32.3-31.9
	c0-18.1,13.2-31.9,33.3-31.9S167.7,116.7,167.7,134.9 M332.3,397V283.3c0-26.5-8.8-44.6-31.9-44.6c-17.1,0-27.4,12.3-32.3,24
	c-1.5,4.4-2,10.3-2,16.2V397h-62.7V257.4c0-25.5-1-47-1.5-65.7h54.4l2.9,28.9h1c8.3-13.7,28.9-33.3,62.7-33.3
	c41.2,0,72.5,27.9,72.5,88.7v121H332.3 M495,48.1C495,24.6,475.4,5,451.9,5H48.1C24.6,5,5,24.6,5,48.1v403.8
	C5,475.4,24.6,495,48.1,495h403.8c23.5,0,43.1-19.6,43.1-43.1V48.1"/>
</svg>
