<?xml version="1.0" encoding="utf-8"?>
<!-- Generator: Adobe Illustrator 22.1.0, SVG Export Plug-In . SVG Version: 6.00 Build 0)  -->
<svg version="1.1" id="Layer_1" xmlns="http://www.w3.org/2000/svg" xmlns:xlink="http://www.w3.org/1999/xlink" x="0px" y="0px"
	 viewBox="0 0 500 500" style="enable-background:new 0 0 500 500;" xml:space="preserve">
<style type="text/css">
	.st0{fill:#222222;}
	.st1{fill:#383838;}
</style>
<g>
	<path class="st0" d="M274.9,409c4.7,0,8.3-0.2,8.2,6.5c-0.4,26.5-0.3,53-0.4,79.5c1.1,0,2.2,0,3.3,0c-1.2-3.5,2-4.7,3.7-6.4
		c21.4-22.3,43.3-44.1,64.1-67c8.6-9.4,17.3-13.2,30.1-12.9c28.6,0.7,52.1-18,60.3-45.4c2.9-9.8,3-19.8,2.9-29.8
		c-0.1-10.6,0-10.6-10.7-10.6c-63,0-186.9,0.4-220.1,0.5l-74,85.3C172.2,408.8,242.5,409,274.9,409z"/>
	<path class="st0" d="M437.5,92.6c1.9,0,3.8-0.1,5.7,0c2.8,0.1,3.7-1.2,3.8-3.9c0.4-9.6,0.5-19.8-1.3-29.8l-29.2,33.7
		C423.4,92.6,430.4,92.6,437.5,92.6z"/>
	<path class="st0" d="M436.1,300.9c1.6,0,3.3-0.1,4.9,0c4.6,0.5,6.1-1.4,6.1-6c-0.2-23-0.1-46.1,0-69.1c0-4.2-0.7-6.5-5.7-6.5
		c-44.2,0-132.5,0.3-132.5,0.3c0,0-0.9,0-2.6,0l-70,80.7C255.1,300.4,377.2,300.9,436.1,300.9z"/>
	<path class="st0" d="M334.7,196c0,0,72,0.2,108,0.6c3.8,0,4.4-2,4.3-5.1c-0.1-23.6-0.1-47.1,0-70.7c0-4.4-1.6-5.6-5.7-5.4
		c-10.5,0.3-21.1,0.3-31.7,0.4c-0.1,0-4.9,0-13.4,0L326.7,196C331.8,196,334.7,196,334.7,196z"/>
	<path class="st1" d="M59.7,323c-3.2,0-6.8-0.5-6.6,4.6c0.3,9.2-0.9,18.5,0.8,27.6c6.6,36.3,34.4,56.3,74.2,53.5c0,0,5.4,0,14.1,0
		l74-85.3c-5.4,0-8.4,0-8.4,0S77.6,323,59.7,323z"/>
	<path class="st1" d="M404.7,9.9c-0.3-0.1-12-4.9-33-4.9c-61.4,0-193.2,0.1-243.1,0.1c-21.7,0-30.5,3.5-36.4,6
		c-20.5,8.4-32.6,24.3-37.7,45.8c-2,8.6-0.7,17.3-1.6,25.9c-0.7,7.6,1.3,10,9.5,9.9c118-0.3,236-0.2,354-0.2l29.2-33.7
		C442.2,39.8,432,21.5,404.7,9.9z"/>
	<path class="st1" d="M59,219.6c-5.5,0-6,2.2-6,6.6c0.1,22.2,0.3,44.5-0.1,66.7c-0.1,6.7,2.2,8,8.3,8c55.1-0.2,172.5-0.7,172.5-0.7
		s0.9,0,2.5,0l70-80.7C284.7,219.5,135.8,219.8,59,219.6z"/>
	<path class="st1" d="M53,122.1c0.2,21.7,0.4,43.4-0.1,65.1c-0.1,7.2,1.4,9.6,9.2,9.5c77.2-0.3,228.2-0.6,264.6-0.7l69.6-80.3
		c-51.3-0.1-237.5-0.3-337.3-0.4C53.4,115.3,53,117.7,53,122.1z"/>
</g>
</svg>
