<svg width="410" height="176" viewBox="0 0 410 176" fill="none" xmlns="http://www.w3.org/2000/svg">
<path d="M88 0C92.9706 0 97 4.02944 97 9V28C97 28.5523 97.4477 29 98 29H113.086C113.351 29 113.605 29.1055 113.793 29.293L132.707 48.207C132.895 48.3945 133 48.6489 133 48.9141V66C133 66.5523 133.448 67 134 67H171.5C172.052 67 172.5 67.4477 172.5 68V71.5C172.5 72.0523 172.948 72.5 173.5 72.5H183V70.5H186.732V72.5H189V70.5H192.5V72.5H317V71H320V72.5H322.5V71H325.356V72.5H396.5C403.68 72.5 409.5 78.3203 409.5 85.5V91C409.5 98.1797 403.68 104 396.5 104H384V112H385V114H384V115.5H385V117.5H384V121H389C390.105 121 391 121.895 391 123V132.5C391 135.261 388.761 137.5 386 137.5H366C365.448 137.5 365 137.052 365 136.5V123C365 121.895 365.895 121 367 121H372V117.768H371V115.768H372V114.268H371V112.268H372V104H349V112H350V114H349V115.5H350V117.5H349V121H354C355.105 121 356 121.895 356 123V136.5C356 137.052 355.552 137.5 355 137.5H331C330.448 137.5 330 137.052 330 136.5V123C330 121.895 330.895 121 332 121H337V117.768H336V115.768H337V114.268H336V112.268H337V104H325.356V105H322.5V104H320V105H316.732V104H192.5V105.5H189V104H186.732V105.5H183V104H173.5C172.948 104 172.5 104.448 172.5 105V108C172.5 108.552 172.052 109 171.5 109H134C133.448 109 133 109.448 133 110V127.086C133 127.351 132.895 127.605 132.707 127.793L113.793 146.707C113.605 146.895 113.351 147 113.086 147H98C97.4477 147 97 147.448 97 148V167C97 171.971 92.9706 176 88 176H69C64.0294 176 60 171.971 60 167V148C60 147.448 59.5523 147 59 147H43.9141C43.6489 147 43.3945 146.895 43.207 146.707L24.293 127.793C24.1055 127.605 24 127.351 24 127.086V110C24 109.448 23.5523 109 23 109H9C4.02944 109 0 104.971 0 100V76C0 71.0294 4.02944 67 9 67H23C23.5523 67 24 66.5523 24 66V48.9141C24 48.6489 24.1055 48.3945 24.293 48.207L43.207 29.293C43.3945 29.1055 43.6489 29 43.9141 29H59C59.5523 29 60 28.5523 60 28V9C60 4.02944 64.0294 0 69 0H88ZM54.5 88L78.5 112L102.5 88L78.5 64L54.5 88Z" fill="white"/>
</svg>
