<?xml version="1.0" encoding="utf-8"?>
<!-- Generator: Adobe Illustrator 22.1.0, SVG Export Plug-In . SVG Version: 6.00 Build 0)  -->
<svg version="1.1" id="Layer_1" xmlns="http://www.w3.org/2000/svg" xmlns:xlink="http://www.w3.org/1999/xlink" x="0px" y="0px"
	 viewBox="0 0 220 270" style="enable-background:new 0 0 220 270;" xml:space="preserve">
<style type="text/css">
	.st0{fill:#574030;}
	.st1{fill:#C59071;}
	.st2{fill:#EFBDA6;}
	.st3{fill:#FCDFD7;}
	.st4{fill:#C58F74;}
	.st5{fill:#FFFFFF;}
</style>
<path class="st0" d="M25.9,187.9c0,0,4.8,24.6,5,42.8c0.1,8.7-8.3,19.7-7.8,21.3c1.9,5,9.9,4.4,15.7-1c3.8-3.6,11.9,6.2,13.8,3.8
	c4.2-5.3,14,3.9,19.4,0s62.3,9,67.5,4c5.2-5,14.5-3.6,17.7-1.3c2.8,2.1,10.8-1.9,11.5,0c1.7,4.5,7.1-0.7,11.3,1.8s9.3-2,8.3-7
	c-0.4-1.9-2.2-8.8-3.2-19.2s6.9-39,6.9-39L25.9,187.9z"/>
<path class="st0" d="M215.8,137.9c-0.5-4.1-3-5-6-4c-1.3,0.4-3.5,2.6-5.5,4.9c0-10,1.3-26.9,1.3-31.9c0-11.5,4.3-29-1.2-41.5
	c-5.5-12.7-19-27.2-33-36.1c-17.8-11.4-40.1-21.2-59.9-25C100,2.1,82.7,3.3,69.3,9C61,12.5,29.7,22.3,42.2,41.2
	C29,42.8,18.9,80,17.6,95c-0.6,6.7-1.8,13-1.7,28.8c0,2.6-0.1,7.2-0.3,13.4l0,0c-1.9-2.6-3.9-4.7-5.8-5.3c-2.8-0.9-5,1.1-6,6
	c-1,5-0.3,25.5,3.7,41c1,3.9,4.3,11,6.3,13s6,8,9,8c2,0,4-0.4,5.1-0.7c1.4,8.8,3,21.2,3,31.5c0.1,8.7-8.3,19.7-7.8,21.3
	c1.9,5,9.9,4.4,15.7-1c3.8-3.6,11.9,6.2,13.8,3.8c4.2-5.3,14,3.9,19.4,0l0,0c7.1,3.8,14.6,7.4,20.7,10.2c4.4,2.1,28.9,2.3,35.8,0.1
	c5.8-1.8,12.4-5.6,18.6-9.7c4.1-0.4,8.1,0.7,10,2c2.8,2.1,10.8-1.9,11.5,0c1.7,4.5,7.1-0.7,11.3,1.8s9.3-2,8.3-7
	c-0.4-1.9-2.2-8.8-3.2-19.2c-0.7-7.6,3.3-25,5.6-33.8c3.7,1.1,7.6,0.9,10.2-1.2c6.6-5.3,9.1-14,12-22
	C217.4,163.4,217.2,150.8,215.8,137.9z"/>
<path class="st1" d="M215.8,137.9c-0.5-4.1-3-5-6-4c-1.3,0.4-3.5,2.6-5.5,4.9c0,0,0,0,0,0.1c-2.3,2.5-5.8,7-6.6,10.7
	c-1.2,5.5-5.9,26.9-5.8,21.4c0.2-5.5,1.9-24,1.5-33.4c-0.3-9.4-5.3-23.6-8.5-32.4s-13.7-25-31.6-38.1
	c-13.9-10.2-25.7-20.6-43.3-20.6c-4.3,0-11.1,1.4-15.7,1c-3.4-0.3-4.9-3.3-6.9-2c-2.5,1.8-5.5,3.9-8.4,5.4
	c-8.7,4.4-19.3,7.7-22.2,10.1c-4.8,3.9-13.1,5.2-16.7,11C35,80.4,35.6,93.4,35,96.6c-1,5.3-6.2,15.5-8.1,24.5s-2.5,27.9-3,32.2
	s-1.2,19.4-1,22.6c0.2,3.2-3-9.5-3.8-15.8c-0.7-6.2,0.6-17.6-3.6-22.7c-1.9-2.6-3.9-4.7-5.8-5.3c-2.8-0.9-5,1.1-6,6
	c-1,5-0.3,25.5,3.7,41c1,3.9,4.3,11,6.3,13s6,8,9,8s6-1,6-1s3.2,11.3,5.8,22.4c1.8,7.6,9.2,15.6,19.2,22.6s27,15.4,39,21
	c4.4,2.1,28.9,2.3,35.8,0.1c12.7-4,29.3-17.3,37.2-23.1c10.4-7.6,16-11.2,17.9-21.7c2.1-11.2,6.1-19.3,6.1-21.3
	c3.9,1.4,8.2,1.3,11-1c6.6-5.3,9.1-14,12-22C217.4,163.4,217.2,150.8,215.8,137.9z"/>
<path class="st2" d="M188.2,116.9c-0.4-1.7-0.7-3.6-1-5.5c-0.8-2.3-1.6-4.4-2.2-6.3c-3.2-8.8-13.7-25-31.6-38.1
	c-13.9-10.2-25.7-20.6-43.3-20.6c-4.3,0-11.1,1.4-15.7,1c-3.4-0.3-4.9-3.3-6.9-2c-2.5,1.8-5.5,3.9-8.4,5.4
	c-8.7,4.4-19.3,7.7-22.2,10.1c-4.8,3.9-13.1,5.2-16.7,11c-5.1,8.4-4.5,21.4-5.1,24.6c-1,5.3-6.2,15.5-8.1,24.5
	c-0.4,1.9-0.7,4.2-1,6.7c0,0.7,0.1,1.3,0.1,1.8c0.5,6.6,1.7,30.1,4,34.1c2.3,4,12.4,12.1,15.4,17.2c2.2,3.7,14.5,42.5,21.3,47.3
	c8.9,6.2,18.3,22.9,29,24.7s24.4,3.2,35.9,0.3c11.5-2.9,25.8-13.3,32.8-18.5s14.3-10.8,17.8-26c4.7-20,6.4-23.7,8.2-43.3
	C192.6,143.6,192.7,135.1,188.2,116.9z"/>
<path class="st3" d="M153.3,67c-4.1-3-8.1-6.1-12-8.8c-4-1.3-7.6-2.1-10.4-2.4c-11.8-1.2-30.8,0-43.8,3.7s-17.5,7-18.8,10.2
	c-3.3,8.4,9.3,9.7,8.6,14.2c-0.7,4.5-18.2,11-20.8,13.5s-9,7.8-8.2,10.7c0.7,2.2,37.9-1.3,44,5.1c3.9,4.2,10.9,14.6,11.3,20.5
	c0.9,12.8-0.4,22.5-0.7,26.8c-0.3,4.3-6.1,15.4,1.4,17.7c5,1.6,10-0.7,12.4-0.9c2.6-0.2,3.1,0.6,7.4,1.1s5.1-1.2,5.6-4
	s-4.9-9-6.8-11c-3.9-4.1-4.3-15.6-4-24.4c0.5-11.8,5-18.4,11.5-22.5s21.8-7.4,28-9.2c6.2-1.8,13.5-5.3,17-12.8
	c0.6-1.3,1.2-2.6,1.8-3.8C171.3,82.9,163.5,74.4,153.3,67z"/>
<path class="st4" d="M128.3,166.8c0.1-1.7,4.1,4.5,8.7,8s7.5,15.5,5.1,13.8s-5.2-4.4-8.1-4.2s-6.6,2.6-10.8,5.1
	c-4.2,2.5-6,2.1-8.4,2.1s-3.5,4.4-7,4.5s-6.6-2.1-8.1-2.2c-1.6-0.1-1.9,3.3-6.8,3.1s-9.3-0.8-11.1-3.6c-1.7-2.8-3.4-6.6-5.4-7.1
	s-4,4.5-7.4,5.6s6.7-9.4,9.1-13.2s5.9-9.8,8.1-12.7s6.1-2.5,7.9-2.8c1.9-0.3,3.4-4.8,3.9-3.9c0.5,0.9-1.7,6-2.8,7.3s-5,0.6-7.6,3.1
	s-5.4,7.6-4.3,11.6c0.7,2.6,3.5,4,5.3,3.3s2.2-2.7,4.4-3c2.2-0.3,4.9,0,7.8,2.1s5.5,3.1,7.4,3.1s4.1-1.3,8.1-3.5
	c4-2.1,6.9-1.4,8-0.9s1.4,2.6,2.4,2.5c1.8-0.2,3.9-2.1,4.8-4c0.6-1.3,0.5-4.3-0.3-6.9C130.4,171.4,128.2,168.3,128.3,166.8z"/>
<path class="st4" d="M47.5,114.8c4.6-3,3.9-9.5,9.9-9.6c7,0,27.8,3.3,29.4,4.1c5.3,2.7,7,6.7,10.6,13.5c2.4,4.6,3.7,12.4,3.2,14.8
	c-1.4,6.5-1.7,10.2-3.7,11.1s-2.7-5.6-6.2-5.4s-14.8,3.5-25.6,2.2c-11.3-1.4-15.3-5-19.6-6c-4.3-1.1-7-4.3-7.5-7
	C36.3,123.8,42.9,117.6,47.5,114.8z"/>
<path d="M114.9,120.3"/>
<path class="st4" d="M174.9,119.5c-1.9-4.1-13.5-14.9-19.5-14.4s-20.1,5-24.8,9.8s-7.5,9.7-8.8,17.4c-1,5.6-0.5,11.7,1.5,12.7
	c1.6,0.8,3.2-2.7,4.5-1.8c2.9,2,4.8,2.2,9.2,2.6c9.7,0.9,16.6-2.8,21.1-2.9c-5.3-0.4-10.4-0.3-12.8,0.1s-5.2-0.6-5.8-1.3
	c-0.7-0.8,1.3-1.4,2.8-1.3c1.5,0.1,4,0.2,9.5-0.1c4.1-0.4,6.9-0.7,9.4-0.6s10.7-0.5,12.8-2.8c2.1-2.3-3-2.4-12.7-7.4
	c-5.9-3-10.6-4.1-18.3-2.7c-5.6,1-0.5-6.4,7.8-6.4s12.4,0.6,18.1,1.4C172.8,122.3,174.9,119.5,174.9,119.5"/>
<g>
	<path class="st5" d="M148.9,137.3c4.6,0.1,15.3-1.9,12.9-2.6s-6.9-4.8-15.5-4.7c-6.5,0.1-13.9,5.5-13.4,6.3
		c0.6,1.2,4.1,0.2,7.5,0.5C142.4,137.2,145.2,137.2,148.9,137.3z"/>
</g>
<path class="st0" d="M122.9,120.3c-1.8-2.7,2.2-9.3,3.7-10.1c3.8-2,22.8-4.5,28.8-5.1s16.3,8.4,19.5,14.4
	c-5.6-3.4-12.6-5.5-18.6-5.6c-8.4-0.1-18.3,1.4-22.9,2.6C129.5,117.6,122.9,120.3,122.9,120.3"/>
<path class="st0" d="M92.6,120.3c1.6-2.4-2.3-9-3.7-10.1c-4.1-3.1-21.1-7.1-31.3-6.7c-6,0.2-14.9,6.5-18.7,15
	c5.6-3.4,13.4-5.5,19.3-5.6c8.4-0.1,18.3,1.4,22.9,2.6C85,116.6,92.6,120.3,92.6,120.3z"/>
<path class="st2" d="M67.8,125.9c2.3-0.1,3.6-0.1,6.5,0.5c2.7,0.6,3.5,1.8,3.3,2.2c-0.1,0.3-1-1.2-6.1-1.6c-3.6-0.3-6.3-0.2-8.3,0
	C61.2,127.2,65.5,126,67.8,125.9z"/>
<path class="st3" d="M142.8,177.8c1.4,1.7,2.6,3.6,3.4,5.7c2.3,6.2,5.7,10.3,7.2,10.3c6.7,0,10.9-14.7,15.9-19.6
	c5.1-4.9,15.6-9.5,17-13.7c1.3-4.2-2-15.3-12.1-15.6c-10.2-0.3-16.7,1-22.9,3.3s-19.1,1.1-22.6,0.2s-4.5,9.7,0,15.7
	C132.4,168.8,138.6,172.6,142.8,177.8"/>
<path class="st4" d="M141.9,201c-0.6-1.4-4.7,3-6.6,3.4c-2.5,0.5-15.4-1.1-19.9-0.9c-7,0.3-8.5,1.6-10.8,1.4
	c-2.3-0.2-5.4-1.9-10.4-1.9s-14.2,0.3-16.5-0.3c-1-1-2-3.8-1.3-6.3c0.4-1.3-3.5-1.3-6.1,2.1c-2.2,2.9-0.8,7,0.2,8.2
	c1.4,1.7,2.7,4.2,6.5,6.4c3.8,2.1,5.7,3.5,8.8,4.8c2.6,1.1,4.3-5.8,5.2-6.9s10.1,1.2,15.3,1.2s16.5-2.5,17.3-1.8
	c1.5,1.3-1.8,5.4-0.1,6c0.8,0.2,2.8-1.7,5.9-3.1c1.7-0.7,4.9-2.8,6.3-3.7c1.4-0.8,4.3-3.1,5.5-3.5C142,206,142.4,202.5,141.9,201z"
	/>
<path class="st4" d="M92.3,219.3c2.8,0.8,7.5,3.6,13.7,3.8c6.2,0.1,9-2,12.1-3s-3.7,6.1-9.2,8c-3.4,1.1-8,1.6-11.7-2.1
	C94,222.6,91.1,218.9,92.3,219.3z"/>
<path class="st3" d="M50.1,148.5c3.5-5,8.1,1.8,15.9,2.2c8.6,0.4,13.2-0.8,14.5,0.4c1.4,1.2-1.8,5.2-4.7,8.2
	c-2.8,3-6.7,6.2-13.9,5.6C54.7,164.1,47.8,151.7,50.1,148.5z"/>
<path class="st3" d="M102.3,215.3c1.1-0.8,4.3-0.2,6.7-0.1c1.9,0.1,9.1-1.2,10-0.8c1.2,0.5-6.4,3-10.1,3
	C106.8,217.3,101.2,216.1,102.3,215.3z"/>
<path class="st0" d="M153.9,134.4c0-1.2-0.3-2.4-0.8-3.4c-1.9-0.5-4.1-0.9-6.8-0.9c-2.3,0-4.8,0.8-6.9,1.7c-0.3,0.8-0.5,1.7-0.5,2.6
	c0,0.9,0.2,1.7,0.4,2.4c0.4,0,0.7,0,1.1,0.1c2,0.3,4.8,0.4,8.5,0.5c1.2,0,2.8-0.1,4.5-0.3C153.7,136.2,153.9,135.3,153.9,134.4z"/>
<g>
	<path class="st5" d="M67.4,136.9c-4.6,0.1-15-2.7-12.4-3.3c2.6-0.6,7.7-3.7,14.6-3.5c6.5,0.2,12.3,4.6,12.3,5.5s-2.6,1-6,1.3
		C74,137,71.2,136.8,67.4,136.9z"/>
</g>
<path class="st0" d="M76.5,131.7c-2-0.9-4.4-1.6-6.9-1.7c-2.5-0.1-4.8,0.3-6.7,0.8c-0.4,0.9-0.7,2-0.7,3.1c0,0.9,0.2,1.7,0.4,2.4
	c1.8,0.3,3.5,0.5,4.8,0.5c3.8-0.1,6.6,0.1,8.5,0c0.1,0,0.3,0,0.4,0c0.4-0.9,0.6-1.8,0.6-2.9C76.9,133.2,76.7,132.4,76.5,131.7z"/>
</svg>
