<svg width="100" height="100" viewBox="0 0 100 100" fill="none" xmlns="http://www.w3.org/2000/svg">
<path d="M0 0V100H100V0H0ZM50.3009 86.96C30.667 86.96 16.7726 68.2304 16.7726 50.1055C16.7726 32.7857 29.2575 14.4593 50.8041 14.4593C63.4903 14.4593 72.9553 20.904 77.3851 30.067L70.2365 34.699C66.0077 25.6367 57.6509 22.6158 50.4016 22.6158C34.493 22.6158 25.9351 37.0152 25.9351 50.5081C25.9351 65.411 36.5068 78.8035 50.7034 78.8035C58.1545 78.8035 67.0145 75.0776 71.1428 66.2167L78.6943 70.3452C74.1631 81.019 61.3761 86.96 50.3009 86.96ZM83.2276 62.5036H79.7062L75.9727 53.5669L72.2386 62.5036H68.7175L59.9752 41.1181H64.4978L70.6296 57.6005L73.3008 50.7212L70.7262 43.8775H74.5025L75.9724 48.1432L77.4423 43.8775H81.2314L78.6133 50.7723L81.3452 57.5698L87.4467 41.1181H92L83.2276 62.5036Z" fill="#4F408C"/>
</svg>
