<svg width="16" height="16" viewBox="0 0 16 16" fill="none" xmlns="http://www.w3.org/2000/svg">
<path d="M10.4172 7.89848L6.57344 5.11723C6.55476 5.10367 6.53269 5.09554 6.50967 5.09376C6.48666 5.09197 6.4636 5.09659 6.44305 5.10711C6.4225 5.11763 6.40527 5.13363 6.39325 5.15334C6.38124 5.17306 6.37492 5.19571 6.375 5.21879V5.95161C6.375 6.11098 6.45156 6.26254 6.58125 6.35629L8.85313 8.00004L6.58125 9.64379C6.45156 9.73754 6.375 9.88754 6.375 10.0485V10.7813C6.375 10.8829 6.49063 10.9422 6.57344 10.8829L10.4172 8.10161C10.4859 8.05161 10.4859 7.94848 10.4172 7.89848Z" fill="black"/>
<path d="M8 1C4.13438 1 1 4.13438 1 8C1 11.8656 4.13438 15 8 15C11.8656 15 15 11.8656 15 8C15 4.13438 11.8656 1 8 1ZM8 13.8125C4.79063 13.8125 2.1875 11.2094 2.1875 8C2.1875 4.79063 4.79063 2.1875 8 2.1875C11.2094 2.1875 13.8125 4.79063 13.8125 8C13.8125 11.2094 11.2094 13.8125 8 13.8125Z" fill="black"/>
</svg>
