<?xml version="1.0" encoding="utf-8"?>
<!-- Generator: Adobe Illustrator 22.1.0, SVG Export Plug-In . SVG Version: 6.00 Build 0)  -->
<svg version="1.1" id="Layer_1" xmlns="http://www.w3.org/2000/svg" xmlns:xlink="http://www.w3.org/1999/xlink" x="0px" y="0px"
	 viewBox="0 0 128 128" style="enable-background:new 0 0 128 128;" xml:space="preserve">
<style type="text/css">
	.st0{fill:none;stroke:#000000;stroke-miterlimit:10;}
</style>
<path class="st0" d="M126,64h-6.4c0,13.1-10.6,23.7-23.7,23.7S72.1,77.1,72.1,64l0-0.2c0.1-13,10.7-23.5,23.7-23.5
	c13.1,0,23.7,10.6,23.7,23.7s-10.6,23.7-23.7,23.7S72.1,77.1,72.1,64l0,0c0-4.5-3.6-8.1-8.1-8.1s-8.1,3.6-8.1,8.1l0,0
	c0,13.1-10.6,23.7-23.7,23.7S8.4,77.1,8.4,64s10.6-23.7,23.7-23.7c13,0,23.5,10.4,23.7,23.4l0,0.3c0,13.1-10.6,23.7-23.7,23.7
	S8.4,77.1,8.4,64H2"/>
</svg>
