<?xml version="1.0" encoding="utf-8"?>
<!-- Generator: Adobe Illustrator 22.1.0, SVG Export Plug-In . SVG Version: 6.00 Build 0)  -->
<svg version="1.1" id="Layer_1" xmlns="http://www.w3.org/2000/svg" xmlns:xlink="http://www.w3.org/1999/xlink" x="0px" y="0px"
	 viewBox="0 0 128 128" style="enable-background:new 0 0 128 128;" xml:space="preserve">
<style type="text/css">
	.st0{fill:none;stroke:#000000;stroke-linecap:square;stroke-miterlimit:10;}
	.st1{fill:none;stroke:#000000;stroke-miterlimit:10;}
</style>
<path class="st0" d="M91,86l-4.7-4.9c7.7-8.8,12.2-20.5,11.5-33.3c-1.3-23.4-20-42.2-43.4-43.7C26.4,2.3,3.3,25.4,5.1,53.4
	c1.5,23.4,20.3,42.1,43.7,43.3c12.8,0.7,24.5-3.8,33.3-11.5l5,5l-1,1c-1.2,1.2-1.2,3.1,0,4.2l10.4-10.3l28.6,28.5L114.7,124
	c1.2,1.2,3.1,1.2,4.2,0l6.2-6.2c1.2-1.2,1.2-3.1,0-4.2L114.7,124L86.1,95.4l10.4-10.3c-1.2-1.2-3.1-1.2-4.2,0l-1.1,1.1L91,86z"/>
<path class="st1" d="M59.1,60.4"/>
</svg>
