<?xml version="1.0" encoding="utf-8"?>
<!-- Generator: Adobe Illustrator 16.0.0, SVG Export Plug-In . SVG Version: 6.00 Build 0)  -->
<!DOCTYPE svg PUBLIC "-//W3C//DTD SVG 1.1//EN" "http://www.w3.org/Graphics/SVG/1.1/DTD/svg11.dtd">
<svg version="1.1" id="Layer_1" xmlns="http://www.w3.org/2000/svg" xmlns:xlink="http://www.w3.org/1999/xlink" x="0px" y="0px"
	 width="500px" height="500px" viewBox="0 0 500 500" enable-background="new 0 0 500 500" xml:space="preserve">
<g>
	<g>
		<path fill="#6DC4A6" d="M250.002,11.048C114.709,11.048,5,120.736,5,256.051c0,108.247,70.201,200.085,167.548,232.481
			c12.244,2.27,16.74-5.315,16.74-11.787c0-5.841-0.228-25.142-0.333-45.612c-68.16,14.819-82.543-28.908-82.543-28.908
			c-11.144-28.318-27.203-35.849-27.203-35.849c-22.229-15.206,1.676-14.894,1.676-14.894c24.603,1.728,37.557,25.246,37.557,25.246
			c21.851,37.455,57.314,26.627,71.294,20.367c2.199-15.834,8.55-26.642,15.557-32.762
			c-54.418-6.193-111.624-27.202-111.624-121.082c0-26.748,9.571-48.604,25.244-65.761c-2.544-6.171-10.93-31.089,2.374-64.837
			c0,0,20.574-6.585,67.393,25.113c19.543-5.428,40.502-8.15,61.323-8.244c20.821,0.093,41.797,2.816,61.375,8.244
			c46.765-31.699,67.312-25.113,67.312-25.113c13.334,33.748,4.944,58.666,2.398,64.837c15.709,17.157,25.217,39.013,25.217,65.761
			c0,94.104-57.313,114.822-111.873,120.889c8.789,7.604,16.619,22.512,16.619,45.371c0,32.779-0.283,59.165-0.283,67.232
			c0,6.52,4.409,14.161,16.828,11.754C424.891,456.068,495,364.264,495,256.051C495,120.736,385.309,11.048,250.002,11.048z
			 M96.761,360.059c-0.539,1.219-2.454,1.584-4.199,0.748c-1.777-0.801-2.775-2.459-2.199-3.681c0.528-1.255,2.447-1.603,4.22-0.763
			C96.364,357.161,97.378,358.838,96.761,360.059z M108.812,370.813c-1.168,1.084-3.452,0.582-5.003-1.131
			c-1.602-1.709-1.903-3.992-0.718-5.092c1.205-1.085,3.421-0.576,5.027,1.131C109.721,367.449,110.034,369.717,108.812,370.813z
			 M117.08,384.57c-1.501,1.044-3.955,0.063-5.473-2.113c-1.501-2.178-1.501-4.791,0.033-5.838c1.521-1.046,3.939-0.105,5.477,2.057
			C118.614,380.891,118.614,383.504,117.08,384.57z M131.063,400.504c-1.343,1.48-4.203,1.084-6.296-0.938
			c-2.142-1.976-2.738-4.778-1.392-6.26c1.359-1.484,4.236-1.066,6.345,0.938C131.846,396.216,132.495,399.041,131.063,400.504z
			 M149.134,405.884c-0.593,1.921-3.348,2.793-6.123,1.978c-2.771-0.84-4.584-3.088-4.024-5.027
			c0.576-1.932,3.343-2.841,6.138-1.966C147.892,401.7,149.71,403.934,149.134,405.884z M169.699,408.166
			c0.069,2.021-2.284,3.695-5.197,3.732c-2.929,0.063-5.298-1.569-5.331-3.56c0-2.041,2.3-3.698,5.23-3.748
			C167.314,404.534,169.699,406.156,169.699,408.166z M189.902,407.391c0.349,1.975-1.676,3.996-4.568,4.539
			c-2.844,0.518-5.477-0.699-5.838-2.654c-0.354-2.021,1.708-4.045,4.549-4.568C186.939,404.201,189.533,405.387,189.902,407.391z"
			/>
	</g>
</g>
</svg>
