<?xml version="1.0" encoding="utf-8"?>
<!-- Generator: Adobe Illustrator 16.0.0, SVG Export Plug-In . SVG Version: 6.00 Build 0)  -->
<!DOCTYPE svg PUBLIC "-//W3C//DTD SVG 1.1//EN" "http://www.w3.org/Graphics/SVG/1.1/DTD/svg11.dtd">
<svg version="1.1" id="Layer_1" xmlns="http://www.w3.org/2000/svg" xmlns:xlink="http://www.w3.org/1999/xlink" x="0px" y="0px"
	 width="2100px" height="2100px" viewBox="0 0 2100 2100" enable-background="new 0 0 2100 2100" xml:space="preserve">
<g>
	<path fill="#FFFFFF" d="M1117.875,1095.491c-0.449-0.533-1.021-0.953-1.712-1.262c-0.692-0.309-1.496-0.463-2.413-0.463
		c-1.783,0-3.188,0.509-4.212,1.525c-1.025,1.017-1.68,2.458-1.963,4.324h11.65c0-0.8-0.112-1.554-0.338-2.262
		C1118.663,1096.646,1118.325,1096.025,1117.875,1095.491z"/>
	<path fill="#FFFFFF" d="M962.046,1012.799c0.93,0.676,2.143,1.014,3.641,1.014c1.835,0,3.423-0.332,4.763-0.996
		c1.34-0.664,2.65-1.672,3.93-3.025v-6.266c-2.584,0.121-4.758,0.344-6.52,0.67c-1.763,0.326-3.176,0.743-4.238,1.25
		c-1.063,0.507-1.823,1.099-2.282,1.775c-0.459,0.677-0.688,1.413-0.688,2.21C960.651,1011,961.116,1012.124,962.046,1012.799z"/>
	<path fill="#FFFFFF" d="M915,1093.616c-1.517,0-2.654,0.371-3.412,1.113c-0.759,0.741-1.138,1.746-1.138,3.012
		c0,0.601,0.096,1.159,0.288,1.676c0.191,0.517,0.475,0.962,0.85,1.337s0.85,0.667,1.425,0.875c0.575,0.209,1.237,0.313,1.987,0.313
		c0.767,0,1.434-0.104,2-0.313c0.566-0.208,1.038-0.495,1.413-0.862c0.375-0.366,0.658-0.809,0.85-1.325
		c0.191-0.517,0.288-1.083,0.288-1.7c0-1.266-0.379-2.271-1.138-3.012C917.655,1093.987,916.517,1093.616,915,1093.616z"/>
	<path fill="#FFFFFF" d="M1169.525,1095.491c-0.449-0.533-1.021-0.953-1.712-1.262c-0.692-0.309-1.496-0.463-2.413-0.463
		c-1.783,0-3.188,0.509-4.212,1.525c-1.025,1.017-1.68,2.458-1.963,4.324h11.65c0-0.8-0.112-1.554-0.338-2.262
		C1170.313,1096.646,1169.976,1096.025,1169.525,1095.491z"/>
	<path fill="#FFFFFF" d="M1088.111,1087.979c-0.991-1.092-2.191-1.93-3.6-2.513s-2.996-0.875-4.763-0.875h-7.024v25.45h7.024
		c1.767,0,3.354-0.292,4.763-0.875c1.408-0.584,2.608-1.421,3.6-2.513c0.992-1.092,1.75-2.425,2.275-4s0.787-3.354,0.787-5.338
		s-0.262-3.763-0.787-5.337C1089.861,1090.404,1089.104,1089.071,1088.111,1087.979z"/>
	<path fill="#FFFFFF" d="M975.401,1095.491c-0.45-0.533-1.021-0.953-1.712-1.262c-0.692-0.309-1.496-0.463-2.413-0.463
		c-1.784,0-3.188,0.509-4.212,1.525c-1.025,1.017-1.68,2.458-1.963,4.324h11.65c0-0.8-0.113-1.554-0.338-2.262
		C976.188,1096.646,975.851,1096.025,975.401,1095.491z"/>
	<path fill="#FFFFFF" d="M1022.662,1101.429c-0.609,1.092-0.913,2.263-0.913,3.513c0,0.917,0.158,1.742,0.475,2.476
		c0.316,0.733,0.746,1.354,1.288,1.862c0.541,0.509,1.175,0.899,1.9,1.175s1.496,0.412,2.313,0.412c1.466,0,2.808-0.229,4.025-0.688
		c1.216-0.458,2.316-1.096,3.3-1.912l-9.475-9.775C1024.241,1099.358,1023.27,1100.338,1022.662,1101.429z"/>
	<path fill="#FFFFFF" d="M1059.988,993.257c-0.326-1.026-0.814-1.926-1.467-2.699c-0.652-0.772-1.479-1.382-2.48-1.829
		s-2.168-0.67-3.496-0.67c-2.584,0-4.618,0.737-6.103,2.21c-1.485,1.473-2.434,3.562-2.844,6.266h16.88
		C1060.479,995.376,1060.314,994.284,1059.988,993.257z"/>
	<path fill="#FFFFFF" d="M909.176,1116.842c0,0.45,0.112,0.87,0.337,1.263c0.225,0.391,0.583,0.729,1.075,1.012
		c0.491,0.283,1.129,0.504,1.912,0.663c0.783,0.158,1.742,0.237,2.875,0.237c1.15,0,2.142-0.088,2.975-0.263
		s1.521-0.417,2.063-0.725c0.542-0.309,0.938-0.675,1.188-1.101c0.25-0.425,0.375-0.887,0.375-1.387s-0.15-0.909-0.45-1.226
		c-0.3-0.316-0.709-0.563-1.225-0.737c-0.517-0.175-1.121-0.304-1.813-0.388c-0.692-0.083-1.425-0.146-2.2-0.188
		c-0.775-0.041-1.575-0.079-2.4-0.112s-1.629-0.1-2.413-0.2c-0.684,0.384-1.237,0.834-1.663,1.351
		C909.388,1115.558,909.176,1116.158,909.176,1116.842z"/>
	<path fill="#FFFFFF" d="M1265.774,1095.491c-0.449-0.533-1.021-0.953-1.712-1.262c-0.692-0.309-1.496-0.463-2.413-0.463
		c-1.783,0-3.188,0.509-4.212,1.525c-1.025,1.017-1.68,2.458-1.963,4.324h11.65c0-0.8-0.112-1.554-0.338-2.262
		C1266.563,1096.646,1266.225,1096.025,1265.774,1095.491z"/>
	<path fill="#FFFFFF" d="M859.426,1095.491c-0.45-0.533-1.021-0.953-1.712-1.262c-0.692-0.309-1.496-0.463-2.413-0.463
		c-1.784,0-3.188,0.509-4.212,1.525c-1.025,1.017-1.68,2.458-1.963,4.324h11.65c0-0.8-0.113-1.554-0.338-2.262
		C860.214,1096.646,859.876,1096.025,859.426,1095.491z"/>
	<path fill="#FFFFFF" d="M1238.025,1096.017c-0.45-0.65-0.996-1.125-1.638-1.425s-1.371-0.45-2.188-0.45
		c-1.283,0-2.375,0.271-3.274,0.813c-0.9,0.542-1.75,1.305-2.551,2.287v11.5c0.7,0.851,1.463,1.45,2.288,1.801
		c0.825,0.35,1.721,0.524,2.688,0.524c0.933,0,1.774-0.175,2.524-0.524c0.75-0.351,1.388-0.884,1.913-1.601
		c0.524-0.716,0.929-1.62,1.212-2.712s0.426-2.379,0.426-3.863c0-1.5-0.121-2.771-0.363-3.813
		C1238.821,1097.513,1238.476,1096.667,1238.025,1096.017z"/>
	<path fill="#FFFFFF" d="M1204.825,1094.066c-2.167,0-3.771,0.729-4.813,2.188c-1.042,1.459-1.563,3.563-1.563,6.313
		s0.521,4.847,1.563,6.288c1.041,1.441,2.646,2.162,4.813,2.162c2.133,0,3.712-0.717,4.737-2.15c1.024-1.433,1.537-3.533,1.537-6.3
		s-0.513-4.875-1.537-6.325C1208.537,1094.792,1206.958,1094.066,1204.825,1094.066z"/>
	<path fill="#FFFFFF" d="M-0.144,0v2100h2100V0H-0.144z M1197.001,982.228h8.947v23.617c0,2.271,0.525,4.027,1.575,5.271
		c1.051,1.244,2.627,1.866,4.728,1.866c1.545,0,2.994-0.344,4.347-1.033c1.352-0.688,2.632-1.636,3.84-2.843v-26.877h8.946v37.164
		h-5.47c-1.183,0-1.932-0.543-2.245-1.63l-0.616-2.97c-1.521,1.545-3.2,2.795-5.035,3.749s-3.996,1.431-6.483,1.431
		c-2.028,0-3.821-0.344-5.379-1.032c-1.558-0.688-2.868-1.66-3.931-2.916c-1.063-1.255-1.865-2.747-2.408-4.474
		c-0.544-1.726-0.815-3.628-0.815-5.705V982.228z M1128.54,967.014c0.845,0,1.552,0.199,2.119,0.598s0.947,0.936,1.141,1.612
		l8.911,31.333c0.193,0.773,0.38,1.612,0.562,2.517c0.181,0.906,0.368,1.854,0.562,2.844c0.192-1.014,0.404-1.968,0.634-2.862
		c0.229-0.893,0.477-1.726,0.742-2.499l10.287-31.333c0.193-0.555,0.573-1.063,1.142-1.521c0.566-0.458,1.262-0.688,2.083-0.688
		h2.861c0.845,0,1.533,0.206,2.064,0.616c0.531,0.411,0.93,0.942,1.195,1.594l10.251,31.333c0.507,1.498,0.966,3.224,1.376,5.18
		c0.314-1.907,0.664-3.634,1.051-5.18l8.911-31.333c0.145-0.604,0.513-1.123,1.104-1.558s1.298-0.652,2.119-0.652h7.643
		l-16.264,52.377h-8.802l-11.446-35.788c-0.314-0.87-0.604-1.932-0.869-3.188c-0.146,0.604-0.29,1.171-0.436,1.702
		c-0.145,0.532-0.302,1.027-0.471,1.485l-11.555,35.788h-8.838l-16.228-52.377H1128.54z M1091.176,1007.076
		c-0.52-0.555-1.208-1.038-2.064-1.449c-0.857-0.41-1.836-0.779-2.935-1.104c-1.099-0.326-2.222-0.682-3.368-1.069
		c-1.147-0.386-2.271-0.838-3.369-1.358c-1.099-0.519-2.077-1.177-2.934-1.974c-0.857-0.797-1.546-1.775-2.064-2.934
		c-0.52-1.159-0.779-2.56-0.779-4.202c0-1.521,0.302-2.97,0.906-4.347c0.603-1.376,1.49-2.577,2.662-3.604
		c1.171-1.026,2.632-1.847,4.383-2.463c1.75-0.616,3.772-0.924,6.067-0.924c2.559,0,4.89,0.423,6.99,1.268
		c2.102,0.846,3.852,1.956,5.253,3.333l-2.028,3.224c-0.242,0.386-0.496,0.658-0.761,0.815c-0.267,0.157-0.604,0.235-1.015,0.235
		c-0.435,0-0.899-0.121-1.395-0.362c-0.495-0.241-1.068-0.513-1.721-0.815c-0.651-0.302-1.395-0.573-2.228-0.815
		c-0.833-0.241-1.817-0.362-2.952-0.362c-1.763,0-3.146,0.375-4.147,1.123s-1.503,1.727-1.503,2.934
		c0,0.797,0.259,1.467,0.778,2.011c0.52,0.543,1.207,1.021,2.064,1.431c0.857,0.411,1.83,0.779,2.916,1.104
		c1.087,0.326,2.191,0.683,3.314,1.069c1.123,0.387,2.228,0.828,3.314,1.322c1.087,0.495,2.059,1.123,2.916,1.883
		c0.856,0.761,1.545,1.672,2.064,2.735c0.52,1.063,0.779,2.343,0.779,3.839c0,1.788-0.32,3.436-0.96,4.944
		c-0.641,1.51-1.588,2.813-2.844,3.912c-1.256,1.099-2.808,1.956-4.654,2.572c-1.848,0.616-3.979,0.924-6.394,0.924
		c-1.28,0-2.529-0.115-3.749-0.344s-2.391-0.549-3.514-0.96c-1.123-0.41-2.161-0.893-3.115-1.449
		c-0.954-0.555-1.793-1.159-2.518-1.811l2.065-3.405c0.266-0.411,0.579-0.725,0.941-0.942s0.82-0.326,1.377-0.326
		c0.555,0,1.08,0.157,1.575,0.471s1.068,0.652,1.721,1.014s1.418,0.701,2.3,1.014c0.882,0.314,1.998,0.471,3.351,0.471
		c1.063,0,1.975-0.126,2.735-0.38c0.761-0.253,1.388-0.585,1.883-0.996c0.495-0.41,0.857-0.887,1.087-1.431s0.345-1.105,0.345-1.685
		C1091.955,1008.344,1091.695,1007.632,1091.176,1007.076z M1035.738,992.859c0.821-2.233,1.998-4.178,3.532-5.832
		c1.533-1.654,3.405-2.964,5.615-3.93c2.209-0.965,4.702-1.449,7.479-1.449c2.342,0,4.504,0.375,6.484,1.123
		s3.682,1.841,5.107,3.278c1.424,1.437,2.541,3.2,3.352,5.289c0.809,2.089,1.213,4.474,1.213,7.154c0,1.353-0.145,2.264-0.436,2.735
		c-0.289,0.471-0.846,0.707-1.666,0.707h-23.001c0.145,1.908,0.483,3.556,1.014,4.944s1.232,2.535,2.101,3.441
		s1.901,1.582,3.097,2.028c1.195,0.447,2.518,0.67,3.967,0.67s2.699-0.169,3.748-0.507c1.051-0.338,1.969-0.712,2.754-1.123
		c0.785-0.41,1.473-0.784,2.064-1.123c0.592-0.338,1.164-0.507,1.721-0.507c0.748,0,1.305,0.278,1.666,0.833l2.572,3.26
		c-0.99,1.159-2.102,2.131-3.332,2.916c-1.232,0.785-2.518,1.413-3.859,1.883c-1.34,0.471-2.703,0.803-4.092,0.996
		s-2.734,0.29-4.039,0.29c-2.584,0-4.986-0.429-7.208-1.286c-2.222-0.857-4.154-2.125-5.795-3.803
		c-1.643-1.678-2.934-3.755-3.876-6.23c-0.942-2.475-1.413-5.343-1.413-8.603C1034.506,997.477,1034.917,995.093,1035.738,992.859z
		 M1018.642,965.565h8.947v53.826h-8.947V965.565z M991.512,982.228h5.252c0.917,0,1.558,0.163,1.92,0.489
		c0.362,0.326,0.603,0.912,0.724,1.757l0.543,4.202c1.159-2.222,2.536-3.967,4.129-5.234s3.478-1.902,5.651-1.902
		c1.714,0,3.091,0.375,4.129,1.123l-0.58,6.701c-0.121,0.435-0.296,0.743-0.525,0.924c-0.23,0.181-0.538,0.271-0.924,0.271
		c-0.362,0-0.9-0.06-1.612-0.181c-0.712-0.121-1.407-0.181-2.083-0.181c-0.991,0-1.872,0.145-2.645,0.435
		c-0.773,0.29-1.467,0.707-2.083,1.25c-0.616,0.543-1.159,1.202-1.63,1.974c-0.471,0.773-0.912,1.654-1.322,2.644v22.893h-8.947
		V982.228z M952.574,1007.094c0.314-0.93,0.827-1.817,1.54-2.663c0.712-0.845,1.636-1.642,2.771-2.391
		c1.135-0.748,2.529-1.4,4.184-1.956c1.654-0.555,3.58-1.008,5.778-1.358c2.197-0.35,4.708-0.561,7.534-0.634v-2.173
		c0-2.487-0.532-4.329-1.594-5.524c-1.063-1.195-2.596-1.793-4.601-1.793c-1.449,0-2.65,0.169-3.604,0.507
		c-0.954,0.338-1.793,0.719-2.518,1.141c-0.724,0.423-1.382,0.803-1.974,1.141c-0.592,0.338-1.25,0.507-1.974,0.507
		c-0.628,0-1.159-0.163-1.594-0.489c-0.435-0.326-0.785-0.706-1.05-1.141l-1.594-2.862c4.274-3.912,9.418-5.868,15.431-5.868
		c2.173,0,4.117,0.357,5.832,1.069c1.714,0.712,3.163,1.702,4.347,2.97c1.183,1.268,2.083,2.783,2.698,4.546
		s0.924,3.695,0.924,5.795v23.472h-4.057c-0.845,0-1.498-0.127-1.956-0.38c-0.459-0.253-0.821-0.766-1.087-1.54l-0.797-2.68
		c-0.942,0.845-1.86,1.588-2.753,2.228c-0.894,0.64-1.824,1.177-2.789,1.612c-0.966,0.435-1.999,0.767-3.097,0.996
		c-1.099,0.229-2.313,0.344-3.64,0.344c-1.57,0-3.019-0.212-4.347-0.634c-1.329-0.422-2.476-1.056-3.441-1.902
		c-0.966-0.845-1.715-1.896-2.246-3.151c-0.531-1.255-0.797-2.717-0.797-4.383C952.103,1008.959,952.26,1008.024,952.574,1007.094z
		 M913.888,965.565h8.947v20.646c1.449-1.352,3.042-2.451,4.781-3.296c1.739-0.845,3.779-1.268,6.122-1.268
		c2.028,0,3.827,0.344,5.397,1.032c1.569,0.688,2.88,1.654,3.93,2.898c1.05,1.244,1.847,2.729,2.391,4.455
		c0.543,1.727,0.815,3.628,0.815,5.705v23.653h-8.947v-23.653c0-2.27-0.52-4.026-1.558-5.27c-1.039-1.244-2.621-1.866-4.745-1.866
		c-1.545,0-2.995,0.351-4.347,1.05c-1.353,0.701-2.632,1.655-3.839,2.862v26.877h-8.947V965.565z M866.22,982.391
		c1.255-3.272,3.024-6.091,5.307-8.458c2.282-2.366,5.004-4.208,8.168-5.524c3.163-1.316,6.665-1.974,10.504-1.974
		c3.815,0,7.202,0.628,10.16,1.883c2.958,1.256,5.476,2.898,7.553,4.926l-3.26,4.528c-0.193,0.29-0.441,0.543-0.743,0.761
		c-0.302,0.217-0.719,0.326-1.25,0.326c-0.362,0-0.737-0.103-1.123-0.308c-0.386-0.205-0.809-0.458-1.268-0.761
		c-0.459-0.301-0.99-0.634-1.594-0.996c-0.604-0.362-1.304-0.694-2.101-0.996c-0.797-0.301-1.72-0.555-2.771-0.761
		c-1.05-0.205-2.264-0.308-3.64-0.308c-2.343,0-4.486,0.417-6.43,1.25s-3.616,2.041-5.017,3.623
		c-1.401,1.582-2.487,3.513-3.26,5.795c-0.773,2.282-1.159,4.884-1.159,7.806c0,2.947,0.417,5.566,1.25,7.86
		c0.833,2.294,1.961,4.226,3.387,5.796c1.425,1.57,3.103,2.771,5.035,3.604c1.932,0.833,4.008,1.25,6.23,1.25
		c1.328,0,2.529-0.072,3.604-0.217c1.074-0.145,2.065-0.374,2.97-0.688c0.906-0.314,1.763-0.718,2.572-1.214
		c0.809-0.495,1.612-1.104,2.409-1.829c0.241-0.217,0.495-0.392,0.76-0.525c0.266-0.132,0.543-0.199,0.833-0.199
		c0.531,0,1.001,0.206,1.413,0.616l3.839,4.166c-2.125,2.632-4.739,4.649-7.842,6.049c-3.103,1.401-6.828,2.101-11.174,2.101
		c-3.888,0-7.384-0.664-10.486-1.992c-3.104-1.328-5.754-3.175-7.951-5.542c-2.198-2.366-3.882-5.192-5.053-8.476
		c-1.171-3.284-1.757-6.87-1.757-10.758C864.336,989.267,864.964,985.663,866.22,982.391z M863.856,1047.25h369v7.25h-369V1047.25z
		 M838.3,1104.616c-0.883,2.217-2.125,4.125-3.725,5.726c-1.6,1.6-3.525,2.842-5.775,3.725c-2.25,0.884-4.75,1.325-7.5,1.325
		h-13.775v-36.15H821.3c2.75,0,5.25,0.446,7.5,1.338s4.175,2.134,5.775,3.725c1.6,1.592,2.841,3.496,3.725,5.713
		s1.325,4.65,1.325,7.3C839.625,1099.967,839.184,1102.4,838.3,1104.616z M849.701,1106.754c0.366,0.959,0.85,1.75,1.45,2.375
		c0.6,0.625,1.313,1.092,2.137,1.4c0.825,0.309,1.738,0.462,2.738,0.462s1.862-0.116,2.587-0.35s1.358-0.491,1.9-0.775
		c0.542-0.283,1.017-0.541,1.425-0.774s0.804-0.351,1.188-0.351c0.517,0,0.9,0.192,1.15,0.575l1.775,2.25
		c-0.684,0.8-1.45,1.472-2.3,2.013c-0.85,0.542-1.737,0.975-2.662,1.3c-0.925,0.325-1.867,0.554-2.825,0.688
		c-0.958,0.134-1.888,0.2-2.788,0.2c-1.784,0-3.442-0.296-4.975-0.888c-1.533-0.591-2.867-1.466-4-2.625
		c-1.133-1.158-2.025-2.591-2.675-4.3c-0.65-1.708-0.975-3.688-0.975-5.938c0-1.75,0.283-3.396,0.85-4.938
		c0.566-1.541,1.379-2.883,2.438-4.025c1.058-1.141,2.35-2.045,3.875-2.712s3.246-1,5.163-1c1.616,0,3.108,0.259,4.475,0.774
		c1.366,0.518,2.541,1.271,3.525,2.263c0.983,0.992,1.754,2.209,2.313,3.65c0.558,1.441,0.837,3.087,0.837,4.938
		c0,0.934-0.1,1.563-0.3,1.888c-0.2,0.324-0.584,0.487-1.15,0.487h-15.875C849.101,1104.658,849.334,1105.796,849.701,1106.754z
		 M887.613,1110.679c-0.442,1.042-1.096,1.942-1.962,2.7c-0.867,0.759-1.938,1.351-3.212,1.775s-2.746,0.638-4.413,0.638
		c-0.884,0-1.746-0.08-2.587-0.238c-0.842-0.158-1.65-0.379-2.425-0.662c-0.775-0.283-1.492-0.616-2.15-1
		c-0.659-0.383-1.237-0.8-1.737-1.25l1.425-2.35c0.183-0.283,0.4-0.5,0.65-0.65s0.566-0.225,0.95-0.225
		c0.383,0,0.746,0.108,1.087,0.324c0.341,0.217,0.738,0.45,1.188,0.7c0.45,0.25,0.979,0.483,1.587,0.7s1.379,0.325,2.313,0.325
		c0.733,0,1.363-0.088,1.888-0.263s0.958-0.404,1.3-0.688s0.592-0.612,0.75-0.987s0.238-0.763,0.238-1.163
		c0-0.6-0.179-1.091-0.538-1.475c-0.358-0.383-0.833-0.717-1.425-1c-0.592-0.283-1.267-0.537-2.025-0.763
		c-0.758-0.225-1.533-0.471-2.325-0.737c-0.792-0.267-1.567-0.579-2.325-0.938s-1.434-0.813-2.025-1.362
		c-0.592-0.55-1.067-1.226-1.425-2.025c-0.359-0.8-0.538-1.767-0.538-2.899c0-1.051,0.208-2.051,0.625-3
		c0.417-0.95,1.029-1.779,1.837-2.488c0.808-0.708,1.816-1.274,3.025-1.699c1.208-0.426,2.604-0.638,4.188-0.638
		c1.767,0,3.375,0.292,4.825,0.875c1.45,0.583,2.658,1.35,3.625,2.3l-1.4,2.225c-0.167,0.268-0.342,0.455-0.525,0.563
		c-0.184,0.109-0.417,0.163-0.7,0.163c-0.3,0-0.621-0.083-0.962-0.25c-0.342-0.167-0.738-0.354-1.188-0.563
		c-0.45-0.208-0.963-0.396-1.538-0.563c-0.575-0.167-1.254-0.25-2.038-0.25c-1.217,0-2.171,0.259-2.862,0.774
		c-0.692,0.518-1.038,1.192-1.038,2.025c0,0.55,0.179,1.013,0.538,1.388c0.358,0.375,0.833,0.704,1.425,0.987
		c0.591,0.283,1.263,0.537,2.013,0.763c0.75,0.225,1.512,0.471,2.287,0.737c0.775,0.267,1.538,0.571,2.288,0.912
		c0.75,0.342,1.421,0.775,2.013,1.301c0.591,0.524,1.066,1.154,1.425,1.887c0.358,0.734,0.538,1.617,0.538,2.65
		C888.276,1108.5,888.055,1109.638,887.613,1110.679z M899.326,1115.392h-6.2v-25.65h6.2V1115.392z M899.851,1083.767
		c-0.217,0.467-0.504,0.875-0.863,1.225c-0.358,0.351-0.779,0.63-1.262,0.838c-0.484,0.209-1,0.313-1.55,0.313
		c-0.533,0-1.037-0.104-1.512-0.313c-0.475-0.208-0.888-0.487-1.238-0.838c-0.35-0.35-0.629-0.758-0.837-1.225
		s-0.313-0.967-0.313-1.5c0-0.55,0.104-1.066,0.313-1.55s0.488-0.9,0.837-1.25c0.35-0.351,0.763-0.629,1.238-0.838
		c0.475-0.208,0.979-0.313,1.512-0.313c0.55,0,1.066,0.104,1.55,0.313c0.483,0.209,0.904,0.487,1.262,0.838
		c0.358,0.35,0.646,0.767,0.863,1.25c0.216,0.483,0.325,1,0.325,1.55C900.176,1082.8,900.067,1083.3,899.851,1083.767z
		 M928.125,1092.917c0,0.733-0.441,1.184-1.325,1.35l-2.3,0.425c0.35,0.884,0.525,1.851,0.525,2.9c0,1.267-0.254,2.412-0.763,3.438
		c-0.509,1.024-1.212,1.896-2.112,2.612c-0.9,0.717-1.963,1.271-3.188,1.662c-1.225,0.393-2.546,0.588-3.963,0.588
		c-0.5,0-0.983-0.025-1.45-0.075c-0.467-0.05-0.925-0.116-1.375-0.2c-0.8,0.484-1.2,1.025-1.2,1.625
		c0,0.518,0.238,0.896,0.712,1.138c0.475,0.242,1.104,0.413,1.888,0.513c0.783,0.1,1.675,0.162,2.675,0.188s2.025,0.079,3.075,0.162
		c1.05,0.084,2.075,0.229,3.075,0.438c1,0.209,1.891,0.538,2.675,0.988c0.783,0.449,1.413,1.063,1.888,1.837
		c0.475,0.775,0.712,1.771,0.712,2.987c0,1.134-0.279,2.233-0.837,3.301c-0.559,1.066-1.367,2.016-2.425,2.85
		c-1.059,0.833-2.358,1.504-3.9,2.013c-1.542,0.508-3.296,0.763-5.263,0.763c-1.934,0-3.617-0.188-5.05-0.563
		c-1.434-0.375-2.625-0.875-3.575-1.5c-0.95-0.625-1.658-1.347-2.125-2.163s-0.7-1.667-0.7-2.55c0-1.2,0.362-2.204,1.087-3.013
		c0.725-0.808,1.721-1.454,2.987-1.938c-0.684-0.35-1.225-0.816-1.625-1.399c-0.4-0.584-0.6-1.351-0.6-2.301
		c0-0.383,0.07-0.778,0.212-1.188c0.141-0.408,0.35-0.813,0.625-1.212c0.275-0.4,0.621-0.779,1.038-1.138
		c0.416-0.358,0.908-0.679,1.475-0.963c-1.3-0.699-2.321-1.633-3.063-2.8c-0.742-1.166-1.112-2.533-1.112-4.1
		c0-1.267,0.254-2.413,0.763-3.438c0.508-1.025,1.216-1.9,2.125-2.625c0.908-0.726,1.983-1.279,3.225-1.663
		c1.242-0.383,2.596-0.574,4.063-0.574c1.1,0,2.133,0.112,3.1,0.337c0.966,0.226,1.85,0.555,2.65,0.987h7.375V1092.917z
		 M954.375,1115.392h-6.175v-16.325c0-1.566-0.359-2.778-1.075-3.638c-0.717-0.857-1.809-1.287-3.275-1.287
		c-1.067,0-2.067,0.242-3,0.725c-0.934,0.484-1.817,1.143-2.65,1.976v18.55h-6.175v-25.65h3.775c0.8,0,1.325,0.375,1.575,1.125
		l0.425,2.025c0.516-0.517,1.063-0.996,1.637-1.438c0.575-0.441,1.183-0.816,1.825-1.125c0.641-0.309,1.329-0.55,2.063-0.725
		c0.733-0.176,1.533-0.263,2.4-0.263c1.4,0,2.642,0.237,3.725,0.712c1.083,0.476,1.987,1.143,2.712,2
		c0.725,0.859,1.275,1.884,1.65,3.075c0.375,1.192,0.563,2.505,0.563,3.938V1115.392z M965.676,1106.754
		c0.366,0.959,0.85,1.75,1.45,2.375c0.6,0.625,1.313,1.092,2.137,1.4c0.825,0.309,1.738,0.462,2.738,0.462s1.862-0.116,2.587-0.35
		s1.358-0.491,1.9-0.775c0.542-0.283,1.017-0.541,1.425-0.774s0.804-0.351,1.188-0.351c0.517,0,0.9,0.192,1.15,0.575l1.775,2.25
		c-0.684,0.8-1.45,1.472-2.3,2.013c-0.85,0.542-1.737,0.975-2.662,1.3c-0.925,0.325-1.867,0.554-2.825,0.688
		c-0.958,0.134-1.888,0.2-2.788,0.2c-1.784,0-3.442-0.296-4.975-0.888c-1.533-0.591-2.867-1.466-4-2.625
		c-1.133-1.158-2.025-2.591-2.675-4.3c-0.65-1.708-0.975-3.688-0.975-5.938c0-1.75,0.283-3.396,0.85-4.938
		c0.566-1.541,1.379-2.883,2.438-4.025c1.058-1.141,2.35-2.045,3.875-2.712s3.246-1,5.163-1c1.616,0,3.108,0.259,4.475,0.774
		c1.366,0.518,2.541,1.271,3.525,2.263c0.983,0.992,1.754,2.209,2.313,3.65c0.558,1.441,0.837,3.087,0.837,4.938
		c0,0.934-0.1,1.563-0.3,1.888c-0.2,0.324-0.584,0.487-1.15,0.487h-15.875C965.076,1104.658,965.309,1105.796,965.676,1106.754z
		 M1001.951,1094.667c-0.084,0.3-0.205,0.512-0.363,0.637c-0.159,0.125-0.371,0.188-0.637,0.188c-0.25,0-0.621-0.041-1.113-0.125
		c-0.492-0.083-0.971-0.125-1.438-0.125c-0.684,0-1.292,0.101-1.825,0.301c-0.534,0.199-1.013,0.487-1.438,0.862
		c-0.425,0.375-0.8,0.829-1.125,1.362c-0.325,0.533-0.629,1.142-0.913,1.825v15.8h-6.175v-25.65h3.625
		c0.633,0,1.075,0.113,1.325,0.338s0.417,0.629,0.5,1.213l0.375,2.899c0.8-1.533,1.75-2.737,2.85-3.612s2.4-1.313,3.9-1.313
		c1.183,0,2.133,0.259,2.85,0.775L1001.951,1094.667z M1043.6,1115.392c-0.634,0-1.146-0.075-1.538-0.225
		c-0.392-0.15-0.804-0.467-1.237-0.95l-2.5-2.575c-1.584,1.3-3.359,2.316-5.325,3.05c-1.967,0.733-4.092,1.101-6.375,1.101
		c-1.384,0-2.746-0.238-4.087-0.713c-1.342-0.475-2.538-1.162-3.587-2.063c-1.05-0.9-1.896-1.987-2.538-3.263
		c-0.642-1.274-0.962-2.712-0.962-4.313c0-1.133,0.183-2.204,0.55-3.212c0.366-1.009,0.875-1.946,1.525-2.813
		c0.65-0.867,1.425-1.646,2.325-2.338s1.883-1.287,2.95-1.787c-0.9-1.25-1.55-2.471-1.95-3.663c-0.4-1.191-0.6-2.379-0.6-3.563
		c0-1.25,0.229-2.438,0.688-3.563c0.458-1.125,1.121-2.104,1.987-2.938c0.867-0.833,1.934-1.495,3.2-1.987
		c1.267-0.491,2.7-0.737,4.3-0.737c1.467,0,2.779,0.225,3.938,0.675s2.15,1.05,2.975,1.8c0.825,0.75,1.475,1.608,1.95,2.575
		s0.754,1.967,0.837,3l-3.925,0.825c-0.734,0.149-1.267-0.167-1.6-0.95c-0.15-0.434-0.346-0.846-0.587-1.237
		c-0.242-0.392-0.529-0.733-0.863-1.025c-0.333-0.291-0.725-0.524-1.175-0.7c-0.45-0.175-0.967-0.262-1.55-0.262
		c-0.7,0-1.325,0.121-1.875,0.362c-0.55,0.241-1.012,0.566-1.387,0.975c-0.375,0.409-0.663,0.884-0.863,1.425
		c-0.2,0.542-0.3,1.113-0.3,1.713c0,0.5,0.05,0.983,0.15,1.45s0.267,0.934,0.5,1.399c0.233,0.467,0.538,0.946,0.913,1.438
		c0.375,0.492,0.837,1.021,1.388,1.588l9.6,9.975c0.55-1.05,0.992-2.158,1.325-3.324c0.333-1.167,0.55-2.351,0.65-3.551
		c0.05-0.383,0.183-0.691,0.4-0.925s0.517-0.35,0.9-0.35h3.85c-0.017,2.2-0.333,4.3-0.95,6.3c-0.617,2-1.5,3.842-2.65,5.525
		l7.576,7.85H1043.6z M1096.749,1104.616c-0.884,2.217-2.125,4.125-3.725,5.726c-1.601,1.6-3.525,2.842-5.775,3.725
		c-2.25,0.884-4.75,1.325-7.5,1.325h-13.774v-36.15h13.774c2.75,0,5.25,0.446,7.5,1.338s4.175,2.134,5.775,3.725
		c1.6,1.592,2.841,3.496,3.725,5.713s1.325,4.65,1.325,7.3C1098.074,1099.967,1097.633,1102.4,1096.749,1104.616z M1108.15,1106.754
		c0.366,0.959,0.85,1.75,1.45,2.375c0.6,0.625,1.313,1.092,2.138,1.4c0.824,0.309,1.737,0.462,2.737,0.462s1.862-0.116,2.587-0.35
		c0.726-0.233,1.358-0.491,1.9-0.775c0.541-0.283,1.017-0.541,1.425-0.774s0.804-0.351,1.188-0.351c0.517,0,0.9,0.192,1.15,0.575
		l1.774,2.25c-0.684,0.8-1.449,1.472-2.3,2.013c-0.85,0.542-1.737,0.975-2.662,1.3s-1.867,0.554-2.825,0.688
		c-0.959,0.134-1.888,0.2-2.787,0.2c-1.784,0-3.442-0.296-4.976-0.888c-1.533-0.591-2.866-1.466-4-2.625
		c-1.134-1.158-2.024-2.591-2.675-4.3c-0.65-1.708-0.975-3.688-0.975-5.938c0-1.75,0.283-3.396,0.85-4.938
		c0.566-1.541,1.379-2.883,2.438-4.025c1.059-1.141,2.35-2.045,3.875-2.712s3.246-1,5.162-1c1.617,0,3.108,0.259,4.476,0.774
		c1.366,0.518,2.541,1.271,3.524,2.263c0.983,0.992,1.754,2.209,2.313,3.65s0.838,3.087,0.838,4.938c0,0.934-0.1,1.563-0.3,1.888
		c-0.2,0.324-0.584,0.487-1.15,0.487h-15.875C1107.551,1104.658,1107.783,1105.796,1108.15,1106.754z M1141.7,1115.392h-5.6
		l-10.176-25.65h5.101c0.466,0,0.854,0.109,1.162,0.325c0.309,0.217,0.513,0.492,0.612,0.825l4.95,13.7
		c0.267,0.8,0.5,1.583,0.7,2.35s0.375,1.534,0.525,2.3c0.166-0.766,0.35-1.533,0.55-2.3s0.441-1.55,0.725-2.35l5.05-13.7
		c0.117-0.333,0.325-0.608,0.625-0.825c0.301-0.216,0.658-0.325,1.075-0.325h4.875L1141.7,1115.392z M1159.801,1106.754
		c0.366,0.959,0.85,1.75,1.45,2.375c0.6,0.625,1.313,1.092,2.138,1.4c0.824,0.309,1.737,0.462,2.737,0.462s1.862-0.116,2.587-0.35
		c0.726-0.233,1.358-0.491,1.9-0.775c0.541-0.283,1.017-0.541,1.425-0.774s0.804-0.351,1.188-0.351c0.517,0,0.9,0.192,1.15,0.575
		l1.774,2.25c-0.684,0.8-1.449,1.472-2.3,2.013c-0.85,0.542-1.737,0.975-2.662,1.3s-1.867,0.554-2.825,0.688
		c-0.959,0.134-1.888,0.2-2.787,0.2c-1.784,0-3.442-0.296-4.976-0.888c-1.533-0.591-2.866-1.466-4-2.625
		c-1.134-1.158-2.024-2.591-2.675-4.3c-0.65-1.708-0.975-3.688-0.975-5.938c0-1.75,0.283-3.396,0.85-4.938
		c0.566-1.541,1.379-2.883,2.438-4.025c1.059-1.141,2.35-2.045,3.875-2.712s3.246-1,5.162-1c1.617,0,3.108,0.259,4.476,0.774
		c1.366,0.518,2.541,1.271,3.524,2.263c0.983,0.992,1.754,2.209,2.313,3.65s0.838,3.087,0.838,4.938c0,0.934-0.1,1.563-0.3,1.888
		c-0.2,0.324-0.584,0.487-1.15,0.487h-15.875C1159.201,1104.658,1159.434,1105.796,1159.801,1106.754z M1187.301,1115.392h-6.175
		v-37.15h6.175V1115.392z M1216.575,1108.017c-0.601,1.634-1.455,3.025-2.563,4.175c-1.109,1.15-2.442,2.034-4,2.65
		c-1.559,0.616-3.288,0.925-5.188,0.925c-1.917,0-3.659-0.309-5.226-0.925s-2.904-1.5-4.013-2.65
		c-1.108-1.149-1.967-2.541-2.574-4.175c-0.609-1.633-0.913-3.467-0.913-5.5c0-2.017,0.304-3.842,0.913-5.475
		c0.607-1.634,1.466-3.017,2.574-4.15c1.108-1.133,2.446-2.008,4.013-2.625c1.566-0.616,3.309-0.925,5.226-0.925
		c1.899,0,3.629,0.309,5.188,0.925c1.558,0.617,2.891,1.492,4,2.625c1.107,1.134,1.962,2.517,2.563,4.15
		c0.6,1.633,0.899,3.458,0.899,5.475C1217.475,1104.55,1217.175,1106.384,1216.575,1108.017z M1245.025,1107.691
		c-0.517,1.634-1.254,3.05-2.213,4.25c-0.958,1.2-2.116,2.138-3.475,2.813s-2.879,1.013-4.563,1.013
		c-1.434,0-2.658-0.221-3.675-0.662s-1.925-1.055-2.726-1.838v10.5h-6.175v-34.025h3.775c0.8,0,1.325,0.375,1.575,1.125l0.5,2.375
		c1.05-1.183,2.241-2.141,3.574-2.875c1.334-0.732,2.9-1.1,4.7-1.1c1.4,0,2.679,0.292,3.838,0.875c1.158,0.584,2.158,1.43,3,2.537
		c0.841,1.109,1.491,2.476,1.95,4.101c0.458,1.625,0.688,3.487,0.688,5.587C1245.801,1104.283,1245.542,1106.059,1245.025,1107.691z
		 M1256.05,1106.754c0.366,0.959,0.85,1.75,1.45,2.375c0.6,0.625,1.313,1.092,2.138,1.4c0.824,0.309,1.737,0.462,2.737,0.462
		s1.862-0.116,2.587-0.35c0.726-0.233,1.358-0.491,1.9-0.775c0.541-0.283,1.017-0.541,1.425-0.774s0.804-0.351,1.188-0.351
		c0.517,0,0.9,0.192,1.15,0.575l1.774,2.25c-0.684,0.8-1.449,1.472-2.3,2.013c-0.85,0.542-1.737,0.975-2.662,1.3
		s-1.867,0.554-2.825,0.688c-0.959,0.134-1.888,0.2-2.787,0.2c-1.784,0-3.442-0.296-4.976-0.888c-1.533-0.591-2.866-1.466-4-2.625
		c-1.134-1.158-2.024-2.591-2.675-4.3c-0.65-1.708-0.975-3.688-0.975-5.938c0-1.75,0.283-3.396,0.85-4.938
		c0.566-1.541,1.379-2.883,2.438-4.025c1.059-1.141,2.35-2.045,3.875-2.712s3.246-1,5.162-1c1.617,0,3.108,0.259,4.476,0.774
		c1.366,0.518,2.541,1.271,3.524,2.263c0.983,0.992,1.754,2.209,2.313,3.65s0.838,3.087,0.838,4.938c0,0.934-0.1,1.563-0.3,1.888
		c-0.2,0.324-0.584,0.487-1.15,0.487h-15.875C1255.45,1104.658,1255.683,1105.796,1256.05,1106.754z M1292.324,1094.667
		c-0.084,0.3-0.204,0.512-0.362,0.637c-0.159,0.125-0.371,0.188-0.638,0.188c-0.25,0-0.621-0.041-1.112-0.125
		c-0.492-0.083-0.972-0.125-1.438-0.125c-0.684,0-1.292,0.101-1.825,0.301c-0.534,0.199-1.013,0.487-1.438,0.862
		s-0.8,0.829-1.125,1.362s-0.63,1.142-0.913,1.825v15.8h-6.175v-25.65h3.625c0.634,0,1.075,0.113,1.325,0.338s0.416,0.629,0.5,1.213
		l0.375,2.899c0.8-1.533,1.75-2.737,2.85-3.612c1.101-0.875,2.4-1.313,3.9-1.313c1.184,0,2.133,0.259,2.85,0.775L1292.324,1094.667z
		"/>
	<path fill="#FFFFFF" d="M829.663,1087.979c-0.992-1.092-2.192-1.93-3.6-2.513c-1.409-0.583-2.996-0.875-4.763-0.875h-7.025v25.45
		h7.025c1.767,0,3.354-0.292,4.763-0.875c1.408-0.584,2.608-1.421,3.6-2.513c0.991-1.092,1.75-2.425,2.275-4
		s0.788-3.354,0.788-5.338s-0.263-3.763-0.788-5.337C831.413,1090.404,830.654,1089.071,829.663,1087.979z"/>
</g>
</svg>
